<svg viewBox="0 0 1680 940" fill="none" xmlns="http://www.w3.org/2000/svg">
	<path d="M1382.34 569.281L1378.25 584.648L1356.1 592.136L1349.46 584.347L1346.25 585.232L1352.26 608.458L1361.26 609.467L1373.27 614.017V618.567L1378.77 617.558L1386.78 606.458V597.376L1391.29 588.295L1396.29 589.304L1390.28 576.681L1389.36 568.556L1382.34 569.281Z" fill="#F0F7FF"/>
	<path d="M1508.04 611.574L1507.38 654.84L1513.61 654.504L1521.8 644.927L1528.68 645.263L1533.1 649.229L1534.57 661.444L1548.64 668.879L1552.25 667.551V663.09L1540.95 653.672L1535.38 640.784L1539.8 638.642L1536.53 631.543L1529.99 631.384L1528.34 623.789L1510.99 612.07L1508.04 611.574Z" fill="#F0F7FF"/>
	<path d="M243.14 394.074L251.682 421.001L247.703 423.231L248.145 428.577L255.661 434.366V445.077L264.945 453.999L260.966 427.692L255.661 410.29L256.987 398.252L261.408 398.695L263.176 402.713L261.408 412.963L284.397 458V474.057L302.966 495.902L323.303 505.267L331.703 500.363L343.64 510.171L350.713 503.036L347.618 494.999L357.787 491.884L360.882 493.672L363.976 490.556H368.84L377.682 474.942L373.261 470.923L356.018 474.942L352.04 486.537L341.871 488.325L329.934 483.421L324.629 466.48L328.643 445.112L320.438 439.996L316.53 419.478L313.258 418.08L307.281 424.152L300.419 420.487L297.731 406.803L270.551 403.953L256.509 393.384L243.14 394.074Z" fill="#F0F7FF"/>
	<path d="M915.636 249.317L905.732 248.963L899.455 252.804L899.366 255.655L903.434 259.496L916.078 261.638L915.636 249.317Z" fill="#F0F7FF"/>
	<path d="M838.019 397.721L830.804 395.296L800.777 400.943L794.233 405.918L798.23 426.577L786.293 427.055L779.113 438.615L762.013 442.722L762.066 451.131L818.39 494.238L827.992 495.053L860.019 470.003L856.818 465.966L850.805 465.152L847.198 459.098V434.048L844.792 431.623L845.199 425.161L838.798 418.699L838.002 411.831L840.796 409.812L839.593 402.536L838.019 397.721Z" fill="#F0F7FF"/>
	<path d="M792.766 406.201H772.341L768.344 415.088L759.13 419.532L751.526 440.138L736.707 449.025L715.893 483.351L736.318 482.944L737.114 472.853H742.313V459.116H760.333L760.74 441.342L777.964 437.305L785.179 425.586L796.391 425.179L792.766 406.201Z" fill="#F0F7FF"/>
	<path d="M716.033 484.767L719.888 489.813L719.093 511.623L724.698 507.586L728.695 506.772L734.301 508.79L740.703 517.677L746.715 513.641L775.947 513.234L768.732 464.356L776.478 464.32L762.048 453.256L762.065 460.443L743.797 460.461L743.709 474.181L738.457 474.163L737.785 484.289L716.033 484.767Z" fill="#F0F7FF"/>
	<path d="M725.265 508.95L718.298 514.013L716.706 516.845L716.211 519.678L718.775 521.519L727.334 521.395L732.834 519.908L733.453 522.616L732.958 526.192L738.21 528.777L739.307 530.016L746.274 530.264L746.522 527.184L740.155 519.536L733.064 509.923L728.661 508.082L725.265 508.95Z" fill="#F0F7FF"/>
	<path d="M719.553 523.147L719.323 525.112L731.561 524.935L732.18 523.112L731.914 521.271L728.395 522.704L719.553 523.147Z" fill="#F0F7FF"/>
	<path d="M719.376 526.476L721.569 531.804L722.789 528.511L737.661 530.069L731.224 526.759L719.376 526.476Z" fill="#F0F7FF"/>
	<path d="M722.577 534.105L725.053 539.009L732.003 533.025L732.074 531.184L723.886 529.998L722.577 534.105Z" fill="#F0F7FF"/>
	<path d="M725.795 540.142L731.171 548.427L738.174 542.338L745.354 542.019L751.331 549.968L756.406 553.313L758.316 549.596L760.014 548.64L759.89 540.461L756.512 530.76L746.149 531.91L733.328 530.884L733.258 534.176L725.795 540.142Z" fill="#F0F7FF"/>
	<path d="M732.003 549.33L741.994 558.996L749.121 550.339L744.665 543.347L738.528 543.966L732.003 549.33Z" fill="#F0F7FF"/>
	<path d="M743.037 560.059L762.454 573.053L761.995 563.21L756.123 556.288L750.394 551.207L743.037 560.059Z" fill="#F0F7FF"/>
	<path d="M764.082 573.441L771.651 568.077L781.059 566.431L790.661 568.502L785.763 561.084L784.33 556.553L785.763 543.151L777.186 543.558L773.295 539.841L765.125 540.053L761.235 540.673L761.641 549.737L759.59 550.569L757.132 555.101L763.463 562.518L764.082 573.441Z" fill="#F0F7FF"/>
	<path d="M741.782 518.722L747.229 514.987L777.504 514.81L770.501 466.055L778.495 465.825L817.17 495.372L822.369 496.115L820.406 512.544L796.09 514.756L777.327 528.777L773.914 538.372L760.881 538.921L757.557 529.344L747.565 530.052L747.954 526.918L741.782 518.722Z" fill="#F0F7FF"/>
	<path d="M796.833 515.96L803.27 515.446L813.828 530.388L804.03 537.788L796.939 535.964L787.407 536.088L785.869 541.682L777.875 542.072L775.683 539.08L778.512 529.981L796.833 515.96Z" fill="#F0F7FF"/>
	<path d="M815.048 529.627L819.557 529.52L823.625 523.413L830.451 522.191L837.719 526.635L853.228 527.077L865.218 522.191L869.727 518.314L870.063 513.216L878.428 504.771L880.639 486.13L875.139 474.588L861.062 471.153L828.488 496.575L823.872 496.132L821.892 513.782L805.269 515.446L815.048 529.627Z" fill="#F0F7FF"/>
	<path d="M785.78 556.27L787.761 560.926L792.925 569.034L795.79 568.927L803.606 564.484L803.058 539.186L797.01 537.416L788.539 537.646L785.78 556.27Z" fill="#F0F7FF"/>
	<path d="M805.021 563.705L809.76 560.925L809.654 542.603L806.577 537.61L804.597 539.274L805.021 563.705Z" fill="#F0F7FF"/>
	<path d="M811.193 560.589H814.942L815.154 549.932L819.894 543.045L819.681 531.06L815.384 530.954L808.01 536.725L811.087 542.603L811.193 560.589Z" fill="#F0F7FF"/>
	<path d="M816.25 560.377L823.182 560.713L831.547 570.043L835.614 571.158L838.797 569.6L843.643 568.927L845.287 562.165L851.884 557.828L859.028 557.491L872.114 533.397L871.902 527.963L865.854 523.307L853.758 528.635L837.577 528.405L829.867 523.519L824.367 524.741L821.502 529.733L821.29 543.824L816.674 550.375L816.25 560.377Z" fill="#F0F7FF"/>
	<path d="M839.841 397.438L849.62 393.49L852.839 395.579L852.963 398.128L851.46 400.093L851.689 403.581L853.193 404.395V410.662L851.46 413.565L851.689 415.424L858.25 417.743L852.963 425.975L850.894 425.851L850.54 432.472L848.241 432.826L846.278 431.091L846.738 424.364L840.301 418.097L839.487 412.645L842.6 410.202L839.841 397.438Z" fill="#F0F7FF"/>
	<path d="M848.93 434.083L851.689 433.623L852.502 427.25H853.882L859.523 417.974L873.441 422.028L877.243 427.94L890.93 434.207L898.057 431.198L897.367 428.188L894.255 425.179L894.609 423.09L899.666 418.806H909.676L913.478 423.904L921.524 425.073L922.567 490.379L916.59 490.149L880.479 471.348L876.571 473.561L861.734 469.844L857.702 464.515L851.83 463.701L848.842 458.372L848.93 434.083Z" fill="#F0F7FF"/>
	<path d="M922.992 425.285L927.714 425.409L936.91 427.958L941.278 428.082L946.689 423.55H949.218L953.816 426.099H959.634L960.677 426.028L964.356 436.615L965.399 440.031L966.372 445.147L964.639 446.422L961.65 444.917L958.202 433.658L955.089 433.428L954.859 437.252L956.928 443.873L973.498 464.408L973.852 473.225L969.024 478.801L923.682 478.288L922.992 425.285Z" fill="#F0F7FF"/>
	<path d="M871.46 519.005L871.69 513.783L880.072 505.622L882.318 485.582L876.73 474.889L880.638 472.889L918.483 492.628L918.253 511.995L911.586 517.677V527.662L915.954 536.124H908.243L895.475 548.764L895.139 552.588L885.714 552.464L885.59 554.199L880.214 553.491L876.536 546.533L873.777 545.17L874.131 543.046L877.597 540.39V527.963L872.804 527.219L867.021 522.917L871.46 519.005Z" fill="#F0F7FF"/>
	<path d="M971.012 544.39L965.807 535.639L965.261 529.273L964.011 529.512L963.672 531.472L956.851 541.448L951.407 538.848L945.978 543.401L934.745 542.755L929.775 538.778L922.643 542.433L922.373 544.867L920.197 546.178L941.985 568.625L953.853 569.299L955.583 571.937L972.563 572.238L972.701 568.431L974.151 565.793L979.812 565.067L972.756 554.818H967.558L966.232 547.54L970.404 545.701L971.012 544.39Z" fill="#F0F7FF"/>
	<path d="M976.168 474.056L969.643 480.642L924.017 480.234L924.511 491.866L920.162 491.741L919.844 512.684L913.247 518.369L912.981 527.113L917.741 536.514L922.956 539.595L922.877 540.328L929.985 536.684L935.408 541.019L945.379 541.593L951.141 536.763L956.246 539.197L961.993 530.792L962.476 528.002L966.856 527.168L967.537 535.083L971.916 542.447L982.534 519.589V505.693L990.246 496.592L976.168 474.056Z" fill="#F0F7FF"/>
	<path d="M844.987 569.069L850.682 574.309L850.275 582.417L881.505 581.691L884.052 578.823L875.104 569.175L873.777 565.687L879.472 555.013L875.599 547.931L872.345 546.179V542.585L876.112 540.124L876.324 528.936L873.335 528.6L873.282 534.477L860.16 558.996L852.132 559.403L846.632 563.191L844.987 569.069Z" fill="#F0F7FF"/>
	<path d="M984.498 516.704L984.056 506.276L991.059 498.098L992.951 499.549L996.399 511.092L1012.95 523.431L1009.95 527.131L997.832 516.704H984.498Z" fill="#F0F7FF"/>
	<path d="M1010.62 528.812L1009.61 534.76L1016.61 534.654L1016.72 525.909L1014.15 524.333L1010.62 528.812Z" fill="#F0F7FF"/>
	<path d="M971.73 546.905L984.604 518.226L997.389 518.296L1008.72 528.157L1007.93 536.283H1016.72L1017.62 541.169L1031.84 549.684L1040.61 550.126L1023.93 568.06L1001.03 575.123H995.356L985.24 566.484L981.244 564.802L973.498 553.384L968.387 553.455L967.786 548.215L971.73 546.905Z" fill="#F0F7FF"/>
	<path d="M1018.15 535.009L1025.37 539.93L1027.51 539.824L1045.42 533.663L1047.45 540.231L1046.02 545.772L1042.15 548.852L1032.47 548.233L1018.63 539.718L1018.15 535.009Z" fill="#F0F7FF"/>
	<path d="M1060.38 525.466L1064.15 529.68L1069.24 526.599L1071.08 525.98L1068.75 523.714L1064.27 525.042L1060.38 525.466Z" fill="#F0F7FF"/>
	<path d="M1046.85 533.255L1054.58 530.281L1057.32 531.928L1057.02 538.796L1049.89 559.12L1011.32 600.474L1006.85 597.394L1006.55 579.938L1012.35 573.264L1024.66 569.458L1042.71 550.374L1047.44 546.161L1048.76 540L1046.85 533.255Z" fill="#F0F7FF"/>
	<path d="M876.536 568.662L884.777 577.584L888.031 573.371L893.212 573.583L894.326 569.476L899.419 566.29L909.995 573.583L916.096 567.529L939.775 568.573L917.811 545.878L920.764 544.037L921.171 540.036L916.184 537.682H908.863L897.067 549.383L896.661 554.199L887.306 553.898L887.005 555.951L880.904 555.332L875.404 565.794L876.536 568.662Z" fill="#F0F7FF"/>
	<path d="M832.467 591.853L834.501 590.826L836.021 592.065L834.501 594.42L832.661 593.694L832.467 591.853Z" fill="#F0F7FF"/>
	<path d="M836.552 585.391L839.611 584.878L840.637 586.825L839.116 588.472L837.595 588.259L836.552 585.391Z" fill="#F0F7FF"/>
	<path d="M843.254 574.61L842.44 578.098L844.881 579.425L847.215 577.673L846.402 574.079L843.254 574.61Z" fill="#F0F7FF"/>
	<path d="M860.143 583.851L859.93 588.259L849.957 588.047L843.855 599.855L858.197 615.557L861.752 612.583L861.646 609.503L859.205 608.37V606.21L864.705 602.723L869.586 606.422L874.98 606.529L874.874 587.958L866.332 587.551L866.226 583.656L860.143 583.851Z" fill="#F0F7FF"/>
	<path d="M850.592 583.957L850.486 586.418L858.515 586.825L858.409 584.046L850.592 583.957Z" fill="#F0F7FF"/>
	<path d="M868.294 583.656L868.188 586.223L876.641 586.436L876.942 608.405L869.214 608.193L864.74 604.705L861.274 606.653L861.114 607.626L862.901 608.494L863.413 613.008L858.639 617.115L859.664 619.275L864.952 615.168H867.498L868.312 617.629L871.672 619.063L882.459 609.928L882.247 603.254L884.493 597.819L891.408 592.685L893.264 575.318L888.348 575.336L882.654 583.143L868.294 583.656Z" fill="#F0F7FF"/>
	<path d="M860.425 620.319L863.502 624.32L867.481 620.55L866.314 616.637L865.323 616.566L860.425 620.319Z" fill="#F0F7FF"/>
	<path d="M865.43 624.71L883.662 624.391L887.358 629.649L887.217 633.526L888.578 634.765H897.633L900.232 629.649H903.928L905.431 631.171L910.507 631.03L912.01 648.874L920.781 649.158V650.539L944.354 661.178L945.451 663.249H950.385L949.836 655.779L940.924 651.495L941.472 645.83L945.309 636.836L954.081 636.553L946.547 611.521L946.689 600.882L958.608 582.223L958.749 579.603L956.963 578.629L957.034 573.566L954.859 573.371L952.666 570.574L916.679 568.945L910.082 575.371L899.277 568.255L895.475 570.592L892.716 593.836L885.89 599.111L883.839 603.785L884.21 610.707L871.902 620.78L868.631 619.293L869.073 621.222L865.43 624.71Z" fill="#F0F7FF"/>
	<path d="M951.092 596.721L956.061 601.306L955.849 606.21L948.139 606.369V600.952L951.092 596.721Z" fill="#F0F7FF"/>
	<path d="M948.245 607.892L955.796 607.732L953.833 614.353L951.923 616.017H949.589L947.927 611.539L948.245 607.892Z" fill="#F0F7FF"/>
	<path d="M951.941 595.287L957.3 600.314L960.66 598.172L969.749 596.685L971.306 596.845L971.889 593.393L977.018 582.594L972.703 573.601L958.714 573.689L958.626 577.389L960.501 579.195L960.218 582.895L951.941 595.287Z" fill="#F0F7FF"/>
	<path d="M974.099 573.034L978.803 582.222L973.162 594.065L972.419 597.659L1000.59 615.096L1009.33 601.359L1004.9 597.765L1004.82 579.673L1010.35 573.618L1001.53 576.557L994.86 576.645L984.426 567.829L981.137 566.413L975.036 566.98L973.957 568.785L974.099 573.034Z" fill="#F0F7FF"/>
	<path d="M973.64 652.521L1004.53 648.733L997.584 635.278L997.213 622.391L999.458 616.23L970.067 597.748L960.854 599.27L957.653 601.643L957.37 607.042L955.301 614.53L953.144 617.097L950.049 617.381L955.973 637.934L965.646 642.484L972.313 642.678L973.64 652.521Z" fill="#F0F7FF"/>
	<path d="M909.941 676.03L915.547 683.82L924.23 684.351L927.307 686.05L936.397 686.156L944.231 675.163L966.124 665.355L968.034 656.716L965.488 644.342L954.064 637.827L946.442 638.358L942.64 646.785L942.746 650.626L951.729 654.999L952.26 664.506L944.532 664.931L942.622 661.726L921.153 652.556L920.517 659.602L910.366 659.921L909.941 676.03Z" fill="#F0F7FF"/>
	<path d="M864.086 626.48L870.116 649.016L869.975 656.132L861.151 665.621L859.824 681.04L893.778 681.341L904.813 685.342L913.92 684.156L908.615 677.5L908.633 658.487L919.066 658.044V650.627L910.596 650.273L908.898 632.711L905.326 632.764L903.398 631.029L901.294 631.136L898.5 636.553H887.748L885.254 634.039L885.997 630.481L883.061 626.179L864.086 626.48Z" fill="#F0F7FF"/>
	<path d="M967.609 666.648L973.109 672.402L973.003 679.766L974.064 682.864L981.368 674.969L980.519 664.931L976.611 661.939L973.127 644.325L967.097 644.112L969.838 656.805L967.609 666.648Z" fill="#F0F7FF"/>
	<path d="M957.016 726.626L961.774 730.574L972.985 723.741L974.789 713.597V696.85L992.774 682.121L995.851 682.227L1006.74 671.764L1005.05 650.202L976.168 653.849L977.017 660.364L981.987 664.205L983.154 675.942L973.427 685.449L971.093 680.12L971.518 673.074L965.912 666.985L952.153 673.393L964.957 679.908L965.381 698.903L956.91 711.49L957.016 726.626Z" fill="#F0F7FF"/>
	<path d="M927.82 689.485L943.683 707.418L955.85 710.516L964.002 697.717L963.366 680.757L950.138 673.924L945.168 676.172L937.759 687.484L927.502 687.378L927.82 689.485Z" fill="#F0F7FF"/>
	<path d="M878.109 741.992L884.033 742.417L887.517 745.94L895.776 746.047L897.791 722.572V707.206L903.079 706.144L905.095 690.034L918.535 689.609L923.292 685.662L915.246 685.343L904.352 686.83L892.61 682.563H859.611L860.46 691.946L871.46 708.162L869.55 716.482L869.656 720.855L878.109 741.992Z" fill="#F0F7FF"/>
	<path d="M899.26 722.997L903.062 724.165L902.531 735.052L906.44 735.583L915.423 727.476L926.21 728.644L929.075 721.386L942.728 708.905L926.334 690.016L926.122 686.918L924.318 686.387L919.349 690.972L906.44 691.29L904.636 707.4L899.56 708.569L899.26 722.997Z" fill="#F0F7FF"/>
	<path d="M956.486 727.9L952.048 728.644L950.138 733.866L953.533 736.964H957.654L961.137 731.954L956.486 727.9Z" fill="#F0F7FF"/>
	<path d="M932.683 748.065L938.077 743.904L940.624 744.011L943.701 747.852L943.382 751.694L938.201 753.606V755.093L932.489 754.774L931.109 750.614L932.683 748.065Z" fill="#F0F7FF"/>
	<path d="M944.619 709.543L930.649 722.466L927.324 730.45L916.254 729.069L907.04 737.266L900.922 736.664L901.417 725.334L899.242 724.573L897.721 747.746L886.863 747.64L883.591 743.781L878.799 743.728L883.167 756.279L890.966 763.661L885.395 770.158L889.003 778.302L897.35 781.488L903.999 775.823L923.045 775.929L924.406 774.23L932.859 772.743L961.455 744.241L961.349 735.265L958.289 739.231H953.709L948.139 734.557L950.968 727.512L955.831 726.52L955.389 712.039L944.619 709.543ZM937.917 742.294L940.587 742.187L944.92 746.896L944.796 752.349L939.721 754.916L939.403 756.722L931.657 756.81L929.234 750.968L931.445 746.684L937.917 742.294Z" fill="#F0F7FF"/>
	<path d="M567.893 83.6333L565.488 87.4749L569.821 91.8122L567.893 96.1494L574.154 104.328L581.846 101.921L591.944 100.965L603.492 113.481L611.184 134.176L604.942 147.17L613.589 145.718L618.399 148.604L618.877 154.87L608.302 155.348L614.067 161.12L621.282 162.571L605.419 183.744L603.492 196.738L606.852 207.325L604.447 213.591L608.779 227.063L616.949 236.216L619.354 235.738L624.642 234.286L625.119 241.987L628.479 246.802L634.722 246.324L639.532 228.515L653.962 210.706L675.608 202.049L689.066 185.196L695.308 188.081H708.288L718.863 177.495L731.844 172.202L733.294 164.023L725.124 156.8L717.908 154.392L714.053 144.284L723.196 138.991L737.626 146.692L742.436 141.398L734.744 137.061L751.102 114.915L748.219 105.284L740.527 104.806L743.409 96.1494L753.029 91.8122L772.747 74.4809L766.982 68.2317L744.859 70.1613L733.311 81.7214L740.049 66.7978L732.357 64.8681L728.024 72.5689L721.781 67.2757L704.468 69.2054L709.279 61.5045L737.644 60.5486L730.429 50.9181L699.658 45.1469L687.156 47.0766L687.633 53.3434L674.653 49.0062L675.13 44.6689L665.988 46.5986L664.06 51.4138L673.68 54.7774L663.583 62.0002L656.367 53.8214L646.27 50.9358L644.82 58.6366H634.722L630.867 50.4578L615.004 48.0502L606.357 52.3875L605.879 58.1587L594.826 56.707L588.089 59.5926L588.566 66.3375V69.7011L576.063 72.1087L570.298 68.2671L566.443 74.5163L572.208 80.7832L584.234 79.3315L585.189 83.1908L576.046 87.528L567.893 83.6333Z" fill="#F0F7FF"/>
	<path d="M606.374 158.73L609.256 163.068L607.806 168.361H604.924L601.068 164.024L602.023 160.66L606.374 158.73Z" fill="#F0F7FF"/>
	<path d="M726.592 146.692L734.762 149.1L734.284 155.845L725.637 151.508L723.709 149.1L726.592 146.692Z" fill="#F0F7FF"/>
	<path d="M1346.07 752.65L1345.45 797.58L1338.55 802.643L1337.93 807.069L1347.34 813.389L1370.56 808.963H1382.48L1386.87 802.625L1413.22 797.562L1432.03 803.263L1430.78 810.857L1433.29 818.452L1447.72 815.92L1448.34 819.709L1438.93 826.666L1442.06 829.198L1448.96 826.666L1447.08 847.556L1460.26 857.682L1467.79 855.15L1471.56 858.939L1493.52 855.77L1514.23 822.223L1521.76 820.329L1536.81 792.482L1540.58 768.441L1531.17 756.421L1534.94 753.889L1527.4 730.468L1519.25 724.768L1520.51 693.132L1512.97 687.432L1511.1 669.711H1507.33L1494.78 711.473L1487.88 712.11L1472.19 696.283L1480.98 672.862L1464.68 669.693L1446.48 674.756L1441.46 689.308L1433.31 691.203L1432.69 681.076L1399.44 701.329L1400.06 708.923L1395.04 715.881H1382.48L1355.49 727.264L1346.07 752.65Z" fill="#F0F7FF"/>
	<path d="M1460.26 873.526L1457.13 886.184L1457.74 895.036L1467.15 894.398L1477.82 877.952L1460.26 873.526Z" fill="#F0F7FF"/>
	<path d="M1614.6 848.211L1616.48 869.101L1613.97 878.589L1604.56 885.547L1605.18 893.779V902.63L1607.69 905.799L1633.42 883.652V878.589H1627.14L1618.35 848.848L1614.6 848.211Z" fill="#F0F7FF"/>
	<path d="M1595.79 893.778L1600.81 903.267L1587 916.562L1585.74 923.519L1576.33 924.776L1560.65 939.328L1546.22 932.371L1544.96 927.308L1571.31 915.925L1595.79 893.778Z" fill="#F0F7FF"/>
	<path d="M1603.32 739.354L1602.7 742.523L1610.85 753.906L1615.24 755.801L1615.86 751.375L1603.32 739.354Z" fill="#F0F7FF"/>
	<path d="M1277.65 557.19L1277.15 561.227L1289.16 581.426H1292.66L1317.69 623.329L1327.69 624.338L1332.7 609.698L1324.69 604.652L1323.19 596.58L1277.65 557.19Z" fill="#F0F7FF"/>
	<path d="M1351.32 584.364L1356.66 590.542L1377.14 583.443L1381.19 567.794L1390.31 567.139L1398.66 561.084L1387.84 553.189L1385.36 548.852L1380.02 558.712L1381.99 564.377L1378.73 569.104L1372.6 567.528L1357.72 578.451L1358.11 584.771L1351.32 584.364Z" fill="#F0F7FF"/>
	<path d="M1378.96 560.164L1373.87 566.342L1378.04 567.653L1380.39 564.36L1378.96 560.164Z" fill="#F0F7FF"/>
	<path d="M1396.22 613.026L1400.22 617.929L1397.62 625.294V626.692H1403.53L1405.61 608.281L1407.52 608.812L1410.99 625.63L1414.29 626.515L1417.43 619.328L1414.29 608.458L1411.7 603.732L1419.87 597.766L1417.96 595.128L1410.14 600.209H1408.05L1404.23 594.597L1405.45 592.136L1411.89 588.985L1421.62 591.959L1424.57 591.782L1431.87 584.949L1428.92 581.975L1422.15 587.232H1417.8L1411.2 584.081L1406.51 584.258L1401.3 592.667L1397.99 607.219L1396.22 613.026Z" fill="#F0F7FF"/>
	<path d="M1439.83 580.08L1436.52 588.135L1441.74 594.968H1443.47L1445.74 590.419L1446.96 588.843L1444.69 586.382L1441.39 585.161L1439.83 580.08Z" fill="#F0F7FF"/>
	<path d="M1450.09 606.546L1442.96 608.121L1440.87 610.405L1442.61 613.379L1447.29 611.627L1450.25 609.874L1454.6 613.379L1456.51 611.804L1453.04 607.59L1450.09 606.546Z" fill="#F0F7FF"/>
	<path d="M1331.92 629.33L1327.06 632.658L1328.1 635.455L1343.58 638.961L1351.39 640.359L1354.7 643.864L1363.56 644.572L1367.73 648.078L1371.55 647.192L1375.04 644.041L1368.6 641.067L1363.05 636.34L1348.62 632.835L1331.92 629.33Z" fill="#F0F7FF"/>
	<path d="M1382.5 644.572L1378.68 646.679L1380.94 649.14L1386.5 647.033L1382.5 644.572Z" fill="#F0F7FF"/>
	<path d="M1389.09 642.997L1389.78 646.325L1393.78 647.369L1395.34 645.44L1393.6 642.802L1389.09 642.997Z" fill="#F0F7FF"/>
	<path d="M1398.66 651.76L1393.8 652.468L1398.15 656.15H1401.62L1398.66 651.76Z" fill="#F0F7FF"/>
	<path d="M1400.04 645.971L1399 648.077L1406.81 649.299L1412.9 645.794L1409.43 644.749L1403.88 646.325L1401.79 644.572L1400.04 645.971Z" fill="#F0F7FF"/>
	<path d="M1425.6 647.21L1416.56 654.751L1417.43 656.681L1421.24 655.973L1425.75 651.76L1434.61 650.538L1432.88 647.564L1425.6 647.21Z" fill="#F0F7FF"/>
	<path d="M1557.06 612.831L1555.5 615.044L1564.01 622.585L1565.18 627.011L1567.49 626.746L1567.76 622.196L1565.18 619.859L1557.06 612.831Z" fill="#F0F7FF"/>
	<path d="M1561.32 623.506L1559.64 623.895L1558.62 628.445L1555.4 630.534L1545.72 632.233L1546.11 635.88L1556.3 635.367L1562.75 631.331L1562.36 624.303L1561.32 623.506Z" fill="#F0F7FF"/>
	<path d="M1572.8 631.436L1574.99 637.544L1578.86 641.315L1580.03 640.27L1579.64 636.234L1575.26 630.905L1572.8 631.436Z" fill="#F0F7FF"/>
	<path d="M1583.5 640.536L1583.76 644.572L1586.22 646.909L1588.54 645.475L1586.47 641.173L1583.5 640.536Z" fill="#F0F7FF"/>
	<path d="M1586.59 650.556L1584.52 652.769L1586.72 656.805L1589.3 657.584L1589.17 654.858L1586.59 650.556Z" fill="#F0F7FF"/>
	<path d="M1591.63 648.22L1593.44 652.645L1596.92 656.806L1598.85 653.69L1596.27 649.264L1591.63 648.22Z" fill="#F0F7FF"/>
	<path d="M1600.67 654.857L1601.69 660.328L1604.15 663.709L1606.22 659.425L1600.67 654.857Z" fill="#F0F7FF"/>
	<path d="M1603.5 667.091L1602.6 668.649L1605.57 672.561L1607.64 672.685L1606.34 667.604L1603.5 667.091Z" fill="#F0F7FF"/>
	<path d="M1596.92 674.88L1593.83 676.314L1596.53 680.085L1598.85 678.775L1596.92 674.88Z" fill="#F0F7FF"/>
	<path d="M1628.49 698.195L1626.29 701.134L1627.21 704.445L1628.31 705.188L1630.31 702.603L1628.49 698.195Z" fill="#F0F7FF"/>
	<path d="M1629.58 707.206L1629.76 709.596L1632.13 710.339L1633.77 709.419L1632.13 706.834L1629.58 707.206Z" fill="#F0F7FF"/>
	<path d="M1633.05 728.556L1631.95 730.22L1633.6 732.061L1636.34 731.14L1633.05 728.556Z" fill="#F0F7FF"/>
	<path d="M1677.56 724.873L1675.37 727.812L1675.19 731.122L1677.74 733.707L1677.56 724.873Z" fill="#F0F7FF"/>
	<path d="M1395.94 521.713L1394.42 524.616L1393.57 528.192L1385.12 538.938L1385.63 541.151L1389.18 540.637L1400.16 528.352L1395.94 521.713Z" fill="#F0F7FF"/>
	<path d="M1409.63 517.624L1409.45 526.493L1412.67 529.733L1413.85 536.035L1417.07 536.726L1418.59 532.796L1416.06 530.919L1415.39 519.837L1409.63 517.624Z" fill="#F0F7FF"/>
	<path d="M1418.77 521.041L1418.59 528.883L1420.45 531.946L1423.67 528.193L1422.82 521.377L1418.77 521.041Z" fill="#F0F7FF"/>
	<path d="M1420.79 514.207L1424 518.474L1425.52 522.563H1428.41L1427.89 515.57L1424.68 513.357L1420.79 514.207Z" fill="#F0F7FF"/>
	<path d="M1427.05 530.246L1427.72 535.362L1421.79 540.142L1416.89 540.655L1411.66 546.285L1411.84 548.852L1416.74 547.312L1420.11 545.099L1423 552.428L1428.07 556.004L1430.1 555.314L1431.96 553.101L1427.91 549.011L1430.28 547.135L1432.99 549.348L1434.84 546.285L1432.99 542.532L1432.65 534.176L1427.05 530.246Z" fill="#F0F7FF"/>
	<path d="M1399.49 478.234L1394.93 481.474L1394.42 491.706L1401.53 505.515L1403.9 507.391L1406.94 505.338L1412.17 506.188L1413.18 510.79L1417.07 511.127L1418.93 508.577L1416.56 505.338L1413.68 502.611L1407.59 501.939L1404.37 496.646L1408.09 491.016L1408.42 486.077L1405.89 479.775L1399.49 478.234Z" fill="#F0F7FF"/>
	<path d="M1401.86 508.755L1403.21 513.535L1405.58 515.075L1407.27 512.862L1404.57 509.109L1401.86 508.755Z" fill="#F0F7FF"/>
	<path d="M1343.7 473.277L1339.47 474.463L1336.43 478.216L1338.96 483.156L1342.67 483.492L1346.9 479.739L1347.91 474.8L1343.7 473.277Z" fill="#F0F7FF"/>
	<path d="M1392.56 434.579L1386.3 439.359L1385.96 448.565L1391.38 454.867L1392.72 453.681L1392.56 434.579Z" fill="#F0F7FF"/>
	<path d="M1420.45 378.124L1417.57 381.027L1418.75 385.117L1421.28 385.294L1422.98 394.163L1425.01 396.376L1428.57 393.136L1430.09 387.33L1425.68 381.027L1420.45 378.124Z" fill="#F0F7FF"/>
	<path d="M1436.01 372.335L1431.11 376.938L1430.94 382.231L1432.12 383.771L1438.72 378.142L1438.2 372.512L1436.01 372.335Z" fill="#F0F7FF"/>
	<path d="M1429.24 361.412L1420.61 371.308L1422.13 373.698L1426.36 374.211L1434.3 368.068L1439.88 367.042L1444.96 373.008L1448.85 371.644L1450.37 365.838L1457.64 365.661L1464.75 357.128L1461.03 342.966L1459.34 335.459L1463.05 332.397L1454.6 319.615L1452.4 319.792L1447.84 324.908V329.175L1449.88 331.565L1450.55 342.824L1445.31 349.303L1442.27 347.427L1439.9 352.72L1439.39 357.659L1441.25 360.562L1440.06 362.775L1436.17 359.536H1433.46L1431.1 360.899L1429.24 361.412Z" fill="#F0F7FF"/>
	<path d="M1443.79 284.333L1441.09 286.723L1442.45 291.839L1444.82 294.229L1444.64 302.071L1441.6 303.258L1439.23 308.551L1446.16 318.093L1450.72 316.553L1451.57 314.163L1446.67 309.737L1449.72 305.807L1452.93 306.32L1455.46 309.046L1455.64 303.417L1462.57 297.787L1466.46 296.761L1463.24 291.308L1461.72 288.918L1459.2 290.618L1457 293.344L1452.26 292.317L1447.36 289.077L1443.79 284.333Z" fill="#F0F7FF"/>
	<path d="M1469.31 279.04L1464.57 285.696L1464.91 288.936L1467.28 287.909L1472.85 280.917L1469.31 279.04Z" fill="#F0F7FF"/>
	<path d="M1475.57 269.321L1473.87 273.923L1474.05 276.986L1476.93 275.109L1479.64 269.657V267.621L1475.57 269.321Z" fill="#F0F7FF"/>
	<path d="M1485.54 228.728L1483.35 231.454L1483.53 235.72L1485.56 235.543L1488.94 229.577L1485.54 228.728Z" fill="#F0F7FF"/>
	<path d="M1481.49 239.138V246.644L1483.86 247.494L1485.56 244.767V238.979L1481.49 239.138Z" fill="#F0F7FF"/>
	<path d="M1412.33 212.017L1412.17 222.939L1425.86 244.095L1430.76 262.506L1439.39 278.881L1442.77 280.067L1445.65 277.677L1446.99 273.747L1434.65 260.275L1434.99 253.282L1437.69 252.096L1438.36 248.007L1414.19 213.734L1412.33 212.017Z" fill="#F0F7FF"/>
	<path d="M1101.3 879.475L1101.04 887.069L1111.54 889.512L1113.96 883.263L1110.2 884.343L1105.35 885.423L1104.01 879.722L1101.3 879.475Z" fill="#F0F7FF"/>
	<path d="M1084.06 701.328L1081.37 704.851L1081.9 708.657L1087.56 704.037L1084.06 701.328Z" fill="#F0F7FF"/>
	<path d="M1074.1 707.312L1070.07 707.578L1069.81 711.101L1072.49 711.65L1076.53 709.756L1074.1 707.312Z" fill="#F0F7FF"/>
	<path d="M1047.44 655.177L1043.67 664.135L1037.21 675.535L1025.91 676.35L1021.07 682.05L1021.88 699.434L1014.88 707.578L1015.69 721.421L1021.62 728.202L1028.62 727.387L1035.62 722.218L1034.01 714.075L1050.16 686.104L1046.92 682.581L1050.16 675.801L1053.66 676.881L1054.74 674.172L1051.5 660.328L1049.61 654.628L1047.44 655.177Z" fill="#F0F7FF"/>
	<path d="M1021.6 652.185L1022.41 654.893L1025.91 655.442L1027.26 651.919L1021.6 652.185Z" fill="#F0F7FF"/>
	<path d="M1026.71 657.62L1028.05 660.612H1030.21L1031.29 656.806L1026.71 657.62Z" fill="#F0F7FF"/>
	<path d="M1065.21 629.365L1064.13 631.543L1067.08 633.986L1069.24 631.543L1065.21 629.365Z" fill="#F0F7FF"/>
	<path d="M1080.29 613.079L1077.06 615.257L1079.48 619.063H1082.72L1080.29 613.079Z" fill="#F0F7FF"/>
	<path d="M1081.64 622.585L1079.48 625.028L1081.09 627.471L1084.04 628.02L1084.31 622.85L1081.64 622.585Z" fill="#F0F7FF"/>
	<path d="M1160.79 562.838L1161.32 567.458L1164.28 568.538L1164.81 564.467L1160.79 562.838Z" fill="#F0F7FF"/>
	<path d="M1164.56 572.609L1164.29 578.31L1166.45 579.39L1168.34 575.583L1164.56 572.609Z" fill="#F0F7FF"/>
	<path d="M1165.11 583.745L1163.21 585.639L1165.37 587.534L1168.06 585.639L1165.11 583.745Z" fill="#F0F7FF"/>
	<path d="M658.984 379.187L656.579 381.612L660.894 384.037L661.372 380.656L658.984 379.187Z" fill="#F0F7FF"/>
	<path d="M671.947 377.734L669.064 379.664L671.47 381.594L675.307 380.62L671.947 377.734Z" fill="#F0F7FF"/>
	<path d="M673.857 384.515L672.425 388.392L674.335 390.817L676.74 388.887L673.857 384.515Z" fill="#F0F7FF"/>
	<path d="M685.369 392.251L684.414 394.676L685.846 396.128L689.684 393.703L685.369 392.251Z" fill="#F0F7FF"/>
	<path d="M721.834 413.53L719.924 415.956L721.834 418.381L724.716 416.929L721.834 413.53Z" fill="#F0F7FF"/>
	<path d="M734.991 444.174L731.896 445.962L733.329 447.413L734.991 444.174Z" fill="#F0F7FF"/>
	<path d="M724.239 444.511L720.401 445.484L722.311 448.388H725.194L724.239 444.511Z" fill="#F0F7FF"/>
	<path d="M715.114 441.607L712.709 444.033L716.069 446.936L717.979 442.581L715.114 441.607Z" fill="#F0F7FF"/>
	<path d="M685.37 509.339L682.01 511.268L684.415 513.198L687.297 511.746L685.37 509.339Z" fill="#F0F7FF"/>
	<path d="M693.627 513.233L691.435 515.181L692.991 518.066L696.74 516.385L693.627 513.233Z" fill="#F0F7FF"/>
	<path d="M688.835 518.704L686.023 520.386L689.047 524.44L691.435 523.183L688.835 518.704Z" fill="#F0F7FF"/>
	<path d="M17.6841 435.27L17.4365 439.394L21.0441 441.82L23.2016 439.89L17.6841 435.27Z" fill="#F0F7FF"/>
	<path d="M27.0392 441.342L23.6792 443.767L26.5617 447.396L29.9217 444.493L27.0392 441.342Z" fill="#F0F7FF"/>
	<path d="M33.7771 447.148L30.8945 451.025L31.8495 453.451L35.9345 451.521L33.7771 447.148Z" fill="#F0F7FF"/>
	<path d="M38.5692 454.654L36.8892 464.338L38.5692 467.967L44.0866 466.267L46.9692 461.417L40.9565 455.84L38.5692 454.654Z" fill="#F0F7FF"/>
	<path d="M48.1896 707.861L44.8296 707.613L44.582 710.764L47.217 712.464L50.3471 710.534L48.1896 707.861Z" fill="#F0F7FF"/>
	<path d="M59.7198 711.26L54.9097 714.411L58.5172 718.766L61.6474 718.04L63.3274 715.863L59.7198 711.26Z" fill="#F0F7FF"/>
	<path d="M489.145 496.646L486.492 497.743L487.429 500.098L490.542 498.062L489.923 497.424L489.145 496.646Z" fill="#F0F7FF"/>
	<path d="M493.513 499.319L491.957 502.63L493.832 505.144L496.166 503.108L493.513 499.319Z" fill="#F0F7FF"/>
	<path d="M498.819 508.436L496.944 510.17L498.341 513.003L500.994 512.224L498.819 508.436Z" fill="#F0F7FF"/>
	<path d="M498.659 515.518L497.403 518.191L499.437 520.386L502.09 518.97L498.659 515.518Z" fill="#F0F7FF"/>
	<path d="M498.819 522.28L496.644 523.856L498.359 527.007L501.171 525.431L498.819 522.28Z" fill="#F0F7FF"/>
	<path d="M496.166 528.405L494.132 530.441L494.91 531.698H497.403L498.181 529.644L496.166 528.405Z" fill="#F0F7FF"/>
	<path d="M499.119 534.548L497.245 536.283L495.211 536.601V539.115L498.96 542.567L500.516 540.054L501.453 537.221L501.135 534.866L499.119 534.548Z" fill="#F0F7FF"/>
	<path d="M479.331 492.556L474.662 490.98L470.913 493.335L472.788 495.53L479.172 496.468L479.331 492.556Z" fill="#F0F7FF"/>
	<path d="M443.644 482.501L440.691 485.528L444.068 486.909L444.563 491.14L437.083 491.795L437.843 495.867L440.019 496.026L441.274 494.15L450.01 494.433L451.584 497.46L453.6 495.088L459.489 493.495L464.67 494.592L465.272 491.459L455.934 485.351L449.886 483.085L443.644 482.501Z" fill="#F0F7FF"/>
	<path d="M465.289 491.459L455.934 485.334L451.513 483.829L450.027 494.451L451.584 497.443L453.617 495.088L459.541 493.513L464.688 494.61L465.289 491.459Z" fill="#F0F7FF"/>
	<path d="M443.626 482.501L449.71 483.138L448.985 490.609L448.383 494.539L441.292 494.15L440.036 496.044L437.861 495.884L437.083 491.795L444.563 491.175L444.104 486.927L440.673 485.51L443.626 482.501Z" fill="#F0F7FF"/>
	<path d="M544.585 894.628L539.934 894.114L535.301 897.23L538.661 900.877L544.585 894.628Z" fill="#F0F7FF"/>
	<path d="M549.218 892.291L547.68 897.23L543.294 901.125L543.559 902.417L551.04 899.549L554.134 895.655L549.218 892.291Z" fill="#F0F7FF"/>
	<path d="M718.616 202.669L715.15 200.704L710.481 203.661L706.467 207.378L706.573 209.449L711.772 210.104L711.454 213.822L709.615 215.681L710.057 216.885L715.256 217.221V223.24L722.736 224.55L727.175 227.064L732.162 227.276L740.721 223.01L747.335 214.265L747.441 208.352L743.427 204.953L740.067 202.103L738.546 203.2L736.265 206.157L733.665 205.82L731.066 202.97L727.706 203.289L722.825 207.343L719.889 210.512L718.262 209.095L718.156 205.59L719.783 204.493L718.616 202.669Z" fill="#F0F7FF"/>
	<path d="M863.449 90.5207L860.531 87.582L854.059 90.7332H842.175L840.301 97.6728L846.968 103.568L849.886 103.143L854.059 95.991L857.596 98.5225L855.085 103.568L853.829 110.932L856.747 115.553L863.007 105.037L871.142 95.1412L868.012 92.415L863.449 90.5207Z" fill="#F0F7FF"/>
	<path d="M866.986 77.8979L861.77 82.7308L864.9 87.5637H870.523L872.822 90.7149L879.701 94.2909L887.624 89.6704L893.053 85.0499L891.178 81.2614L885.749 78.1103L881.788 81.6863L879.082 78.3227L876.996 78.5352L874.29 84.4303L870.329 80.4294L869.904 77.7031L866.986 77.8979Z" fill="#F0F7FF"/>
	<path d="M878.87 99.5664L874.696 103.355L871.159 106.081L872.822 109.02L876.164 110.064L881.593 107.533L884.104 104.382L881.805 100.593L878.87 99.5664Z" fill="#F0F7FF"/>
	<path d="M968.777 63.665L971.818 64.8865L969.678 68.5688V73.7912L965.116 76.5529H960.253L957.512 73.1716L957.812 69.4893L959.952 66.7277H964.214L968.777 63.665Z" fill="#F0F7FF"/>
	<path d="M980.342 60.2833V63.9656L983.384 66.4263L987.645 66.1253L991.306 62.7441V60.2833H987.964L985.223 61.2039L983.083 58.7432L980.342 60.2833Z" fill="#F0F7FF"/>
	<path d="M997.708 60.6017L999.848 65.2045L1004.11 65.5054L1007.15 64.2839L1005.63 59.9821L1001.67 59.0615L997.708 60.6017Z" fill="#F0F7FF"/>
	<path d="M1015.06 54.4594L1011.71 53.8398L1008.67 56.9202L1010.19 59.6818L1011.11 63.9837L1015.07 60.9211L1015.99 57.5398L1015.06 54.4594Z" fill="#F0F7FF"/>
	<path d="M1033.62 87.0146L1032.7 91.3165L1025.7 97.4594L1010.78 100.841L998.592 121.111L996.452 126.953L1008.64 130.033L1010.46 122.669L1014.12 111.303L1023.56 106.382L1031.48 100.239L1037.27 97.7781H1040.31V89.4931L1033.62 87.0146Z" fill="#F0F7FF"/>
	<path d="M994.348 131.856L1002.57 132.777L1005.31 142.301L1012.31 149.666L1009.87 154.587H1005.61L1001.65 149.984L992.827 149.683L989.166 144.762V141.381L994.648 139.841L994.348 131.856Z" fill="#F0F7FF"/>
	<path d="M1122.86 27.1258L1118.9 24.665H1114.34L1113.42 27.4267L1108.55 30.1884L1104.89 31.4099L1104.29 35.0921L1112.81 35.7117L1122.86 27.1258Z" fill="#F0F7FF"/>
	<path d="M1132.28 28.0459L1130.15 32.6487L1125.88 32.3477L1119.18 37.2692L1117.36 43.4121H1121.62L1124.06 39.4113L1129.84 43.7131L1135.33 41.2524L1139.29 37.8711L1137.77 32.6487L1135.63 28.9665L1132.28 28.0459Z" fill="#F0F7FF"/>
	<path d="M1141.13 31.4277L1143.27 40.0314L1146.61 48.0155L1150.27 41.5716L1157.27 40.0314V35.4286L1152.71 32.0473L1141.13 31.4277Z" fill="#F0F7FF"/>
	<path d="M1308.21 17.6547L1312.96 21.6556L1316.34 20.257L1317.33 14.6452L1310.4 9.84766L1305.84 12.8572L1294.73 13.8662V18.8762L1283.03 19.0709V27.2675L1296.71 37.4644L1300.29 34.8621L1299.49 27.6569L1308.23 25.4617L1306.44 22.0628L1303.27 18.8585L1308.21 17.6547Z" fill="#F0F7FF"/>
	<path d="M1320.9 12.8566L1324.07 18.858L1336.38 17.4594L1339.76 13.0514L1338.96 9.24522L1335.58 7.84668L1332.42 10.2543L1323.29 12.2547L1320.9 12.8566Z" fill="#F0F7FF"/>
	<path d="M1320.11 36.2603L1313.95 34.667L1310.4 38.4731L1308.81 43.6778L1317.14 42.8812L1323.49 39.677L1320.11 36.2603Z" fill="#F0F7FF"/>
	<path d="M1479.6 1.65089L1474.44 0.0576172L1468.5 2.25279L1465.53 6.66085L1469.29 11.6708L1479.21 7.26276L1481.19 5.06758L1479.6 1.65089Z" fill="#F0F7FF"/>
	<path d="M1203.48 540.337L1203.92 545.152L1204.37 548.658L1201.77 549.1L1203.07 556.978L1206.98 559.173L1213.05 555.668L1211.32 547.365L1211.76 544.303L1206.12 539.062L1203.48 540.337Z" fill="#F0F7FF"/>
	<path d="M390.556 467.524V469.773L399.964 469.95L404.402 467.365L405.092 469.259L414.323 471.507L422.529 478.925L420.654 481.51L420.99 484.448L427.834 486.166L434.678 483.068L437.755 479.97L433.316 477.721L410.415 464.267L402.386 463.399L390.556 467.524Z" fill="#F0F7FF"/>
	<path d="M423.731 453.733L421.503 453.043L421.326 457.345L424.067 460.107L425.942 457.345L423.731 453.733Z" fill="#F0F7FF"/>
	<path d="M428.17 460.461L425.093 462.178L427.993 466.321L429.531 464.249L428.17 460.461Z" fill="#F0F7FF"/>
	<path d="M438.091 463.559L434.837 463.382L435.173 465.453L437.56 468.905L439.612 466.657L438.091 463.559Z" fill="#F0F7FF"/>
	<path d="M436.553 459.434L431.247 457.185L430.222 451.839L432.273 450.972L434.324 455.114L436.376 456.672L436.553 459.434Z" fill="#F0F7FF"/>
	<path d="M431.424 448.565L428.683 447.874L428.17 444.422L425.27 443.395L427.144 441.501L430.557 442.705L433.121 444.263L431.424 448.565Z" fill="#F0F7FF"/>
	<path d="M422.529 489.954L416.375 491.512V493.229L419.965 495.3H423.732L426.119 492.539L422.529 489.954Z" fill="#F0F7FF"/>
	<path d="M1471.2 595.729L1463.83 596.562L1459.09 600.031L1461.05 603.997L1469.08 605.484V606.971L1464.01 611.096L1466.46 619.682L1468.92 619.841L1471.04 611.414H1474.97L1476.61 619.664L1495.77 635.526L1496.26 647.918L1502.8 655.017L1505.76 654.858L1506.41 611.096L1495.29 603.342L1484.8 610.441L1481.03 612.76L1474.81 608.794L1474.65 596.243L1471.2 595.729Z" fill="#F0F7FF"/>
	<path d="M164.658 74.4637L149.82 77.9866L152.88 94.716L169.026 99.124L169.892 102.647L145.895 110.135L132.366 132.583L137.159 156.358L145.01 161.633L151.129 155.915L152.88 159.438L145.452 168.237L116.645 181.443L98.3064 185.851L97.8643 192.454L140.2 180.133L157.655 175.283L173.8 155.473L191.697 143.594L182.536 158.996L192.581 160.323L209.611 152.835L212.67 165.156L224.448 167.794L236.668 179.673L237.534 188.471L235.783 190.666L237.959 199.022H241.018L241.46 184.931H244.944L245.81 219.699L254.546 212.211L248.428 176.115H239.267L229.223 163.351L278.544 79.7038L229.665 41.4121L175.109 51.9808L172.934 68.7102L184.711 75.756L180.343 87.2099L164.658 74.4637Z" fill="#F0F7FF"/>
	<path d="M344.789 593.676L343.693 598.544L341.659 600.598L343.056 603.112L346.646 601.695L348.362 598.703L347.265 595.552L344.789 593.676Z" fill="#F0F7FF"/>
	<path d="M360.281 58.5311L360.67 65.6478L346.558 80.2882L350.094 92.1492L360.281 89.3875L366.169 80.6776L381.06 75.1366L393.209 74.34L383.801 64.0545L379.097 67.6128L375.56 66.4267L373.597 62.0717L369.282 57.7168L360.281 58.5311Z" fill="#F0F7FF"/>
	<path d="M378.707 37.5703L375.577 43.1113L390.874 48.6524L396.356 40.3497L398.708 45.8907H402.634L410.079 37.588L401.06 35.2158L397.523 32.4541L392.819 37.1985L378.707 37.5703Z" fill="#F0F7FF"/>
	<path d="M405.376 48.6523L393.227 53.7862V57.734L408.912 63.6645L405.376 67.6123L407.728 72.7462L417.525 68.3912H425.765L429.691 74.7112L436.358 67.9841L434.784 61.6464L429.302 63.6291L428.524 55.7159L431.265 50.9714H428.524L424.209 53.7331L422.246 55.3087L423.431 60.8497L420.301 63.2219L415.597 62.8325L414.412 55.7159L405.376 48.6523Z" fill="#F0F7FF"/>
	<path d="M421.45 36.3848L420.266 40.3325L427.711 43.8909L433.193 40.722L432.804 38.3498L421.45 36.3848Z" fill="#F0F7FF"/>
	<path d="M427.321 29.6572L421.839 31.64L422.228 34.4016L434.377 33.605L433.988 30.8433L427.321 29.6572Z" fill="#F0F7FF"/>
	<path d="M453.6 36.3848L452.822 39.1465L450.859 41.9082V45.856L458.304 44.6699L466.139 51.397H468.88V44.6699L461.045 35.96L453.6 36.3848Z" fill="#F0F7FF"/>
	<path d="M473.601 44.2976L476.731 47.8559L473.99 52.6003L475.953 57.7342L484.582 52.9898V49.4315L479.489 43.501L473.601 44.2976Z" fill="#F0F7FF"/>
	<path d="M484.972 35.1981L485.361 41.5181H495.954L498.695 43.8903L498.306 46.6519L488.898 47.838L495.565 56.9374L504.583 58.513L517.122 52.9719L499.084 25.6738L493.602 29.2321L493.991 33.9766L487.713 31.6043L484.972 35.1981Z" fill="#F0F7FF"/>
	<path d="M393.615 79.8984L378.725 83.8462L370.095 91.37L370.873 99.6727L386.559 104.417L383.023 112.33L371.652 105.214L368.521 111.144L375.967 116.278L375.577 124.581L386.948 127.75L400.671 126.953L403.023 122.598L413.21 134.07L420.265 131.698L421.45 123.784L426.543 127.343L427.322 119.429L421.044 115.482L421.433 90.5734L415.951 86.2184L410.079 94.1317L393.615 79.8984Z" fill="#F0F7FF"/>
	<path d="M441.451 97.3004L436.358 94.9282L433.617 98.4865L439.099 107.196L439.488 115.499L451.248 108.383V98.097L455.563 93.7421L451.248 90.5732H444.192L441.451 97.3004Z" fill="#F0F7FF"/>
	<path d="M466.545 93.7422L458.304 100.469L460.267 108.772H465.36L467.712 104.417L471.249 107.975L474.785 107.586L484.193 99.6727L466.545 93.7422Z" fill="#F0F7FF"/>
	<path d="M465.749 80.6777L463.786 84.6255L472.416 87.7944L474.768 84.236L465.749 80.6777Z" fill="#F0F7FF"/>
	<path d="M460.656 65.6475L452.026 66.8336L446.933 71.578L456.341 71.9674L453.6 79.0841L455.562 82.2529L458.304 81.8634L464.971 71.1885L460.656 65.6475Z" fill="#F0F7FF"/>
	<path d="M475.563 62.8857L470.859 64.4613L471.637 70.7813L479.472 75.9152L479.861 79.863L477.509 82.2352L478.693 90.1484L508.88 100.027L517.121 102.788L525.362 95.6718L515.565 87.7585L506.546 90.1307L494.008 88.9446L489.304 84.2002L488.119 71.1531L480.285 67.2053L475.563 62.8857Z" fill="#F0F7FF"/>
	<path d="M500.251 104.028L491.621 103.231L481.435 107.179L475.953 114.685L477.527 135.256L494.38 136.053L510.455 143.966L521.826 157.013L530.456 156.624L528.104 168.874L520.27 181.921L511.64 185.869L505.362 184.683L502.232 181.921L497.528 188.241L499.491 194.561L506.158 194.951L514.399 191.003L521.455 209.202L539.103 220.673L551.252 205.254L541.066 188.649L546.955 181.921L555.196 195.765L570.086 182.718L567.345 176.788L557.159 179.956L550.103 160.572L556.77 149.507L543.436 135.274L535.991 140.408L528.935 124.988L514.045 126.971L510.119 108.383L497.97 116.686L496.785 126.971H490.118L490.896 117.872L500.251 104.028Z" fill="#F0F7FF"/>
	<path d="M517.9 111.145L514.77 114.313L517.511 118.668L530.455 120.244L522.215 111.534L517.9 111.145Z" fill="#F0F7FF"/>
	<path d="M505.361 66.4446V70.0029L496.731 71.9856L499.083 75.9334L508.88 79.8812L519.862 81.0673L527.696 86.6083L535.531 82.2534L530.048 76.7123H537.104L541.419 71.9679L552.012 70.3923V68.0201L546.123 64.0723L546.902 59.7174L563.366 62.4791L587.681 52.9902L578.662 50.2286L581.014 47.0597H599.83L602.96 43.8909L564.922 30.4366L555.903 27.2677L546.106 34.3843L535.124 25.285L529.235 24.8955L528.05 32.4193L520.605 25.6921L511.975 28.4538L513.549 32.8088L526.494 35.5704L525.716 41.8904L532.772 46.2454L550.032 41.8904L550.421 47.821L536.309 54.5481L527.679 47.821L519.845 48.6176L527.679 59.6997L523.753 61.6824L517.864 56.5486L513.549 59.3102L517.475 66.8163H524.142L522.568 73.9329L517.086 73.1363L510.03 65.6125L505.361 66.4446Z" fill="#F0F7FF"/>
	<path d="M470.418 175.3L462.937 184.718L462.478 195.092L469.021 191.321H476.961L482.567 196.508L487.713 192.259L470.418 175.3Z" fill="#F0F7FF"/>
	<path d="M561.509 297.806L542.816 315.721L544.691 319.97L567.574 328.45L570.846 322.802L568.971 313.384L561.491 314.323L557.282 309.614L564.285 302.55L561.509 297.806Z" fill="#F0F7FF"/>
	<path d="M279.8 81.1377L283.319 86.4663L285.087 93.5829L293.894 95.7958L300.066 89.1395L305.353 91.8126L320.332 93.1404L330.907 88.6969L332.675 103.355H338.847V97.1412L345.019 97.5838L360.44 115.8L370.573 122.014L365.285 130.458L367.496 132.671L387.284 136.672L387.726 145.559L393.014 146.444L394.34 133.114L402.705 130.901L408.877 140.23L422.087 146.444L428.701 147.772L433.104 142.443L433.546 133.999L441.469 129.113L444.104 136.23L437.048 148.675L437.932 154.889L441.893 148.675L449.816 141.558L450.258 132.229L445.854 125.112L447.181 119.341L457.756 114.012L462.601 117.571L463.485 148.675L470.966 142.018L475.369 144.692L469.197 155.349L477.12 157.119L488.579 139.345L498.27 149.56L494.309 167.776L484.618 173.105L475.369 168.662L458.64 172.22L460.408 177.991L456.005 185.108L442.353 188.223L426.932 200.226L413.28 218.442L411.512 224.214L420.76 227.772L424.28 236.659L437.048 249.547L457.314 258.434L452.91 278.863L452.468 284.634L457.756 288.192L464.812 278.863L465.696 261.089L476.713 260.647L482.001 250.432L482.885 234.889L496.979 207.343L514.593 213.556L523.842 226.444L519.88 239.332L526.936 243.333L544.108 231.773L548.953 263.32L564.816 282.421L565.258 292.193L547.645 296.637L539.28 305.524L521.666 301.523L512.86 301.08L497.439 313.083L506.688 310.87L518.147 308.657L520.358 311.33L517.281 321.102L517.723 329.989L523.01 333.548L528.298 332.22L530.951 328.219H534.47L528.74 338.876L517.723 339.319L512.877 346.436H506.706L504.937 341.107L513.744 332.22L503.169 335.778L502.691 320.678L499.65 318.907L490.401 322.908L489.517 330.467H468.366L450.311 342.913L426.083 350.914L423.448 347.356L435.65 329.122L428.718 322.448L424.315 313.986L415.349 307.135L405.729 306.338L388.487 294.247L263.442 273.676L261.373 265.196L249.913 254.539V245.652L251.682 237.65L250.797 233.207L246.394 228.763L245.51 221.647L256.969 213.645L249.913 175.442L240.222 174.999L231.416 163.439L279.8 81.1377Z" fill="#F0F7FF"/>
	<path d="M263.07 275.305L261.302 282.421L255.13 278.42H252.053L250.285 285.98L228.692 334.415L234.422 376.619L241.478 380.178L242.804 391.738H257.341L271.435 402.395L299.182 405.068L302.259 419.284L306.662 422.399L312.834 416.186L317.679 418.398L322.083 438.828L329.563 443.714L335.735 432.154L354.675 418.381L367.001 424.152L377.576 425.037L378.018 418.381L400.035 418.823L404.438 423.709L405.322 434.809L402.687 441.023L405.764 451.68H412.378L418.992 441.465L416.357 436.579L413.722 425.922L417.684 413.92L435.739 398.376L449.391 394.375L447.623 381.488L466.563 361.041L485.502 357.925L482.425 347.285L500.923 336.628V322.412L499.155 321.527L492.541 323.74L491.657 332.45L469.675 332.716L452.451 344.17L425.411 353.021L421.097 347.728L433.369 329.14L427.304 323.351L423.183 315.491L414.642 308.622L405.358 307.843L387.815 295.858L263.07 275.305Z" fill="#F0F7FF"/>
	<path d="M236.668 222.319L233.662 228.091L234.705 232.18L236.668 233.401L236.208 235.066L234.104 235.667L234.705 241.74L236.969 244.023L238.772 242.058L236.509 236.145L237.853 231.436L241.16 227.028L238.755 222.939L236.668 222.319Z" fill="#F0F7FF"/>
	<path d="M246.606 256.911L243.9 257.973L248.87 263.744L250.072 270.578L255.041 275.889L259.25 275.128V268.153L254.14 264.966L246.606 256.911Z" fill="#F0F7FF"/>
	<path d="M344.63 511.074L355.117 518.757L365.692 505.604L363.888 502.877L360.28 502.753V495.053L357.575 493.406L349.387 495.849L352.517 503.072L344.63 511.074Z" fill="#F0F7FF"/>
	<path d="M367.036 506.223L383.376 505.604L388.222 511.375L385.198 510.684L379.38 510.932L371.776 518.084L368.522 525.325L366.382 524.192L366.364 516.261L361.66 513.11L367.036 506.223Z" fill="#F0F7FF"/>
	<path d="M356.603 519.483L364.914 523.625L364.79 517.057L360.528 514.455L356.603 519.483Z" fill="#F0F7FF"/>
	<path d="M385.056 512.118L388.929 512.897L389.053 520.846L384.543 533.734L372.394 532.53L369.688 526.316L373.296 518.775L380.14 512.401L385.056 512.118Z" fill="#F0F7FF"/>
	<path d="M384.419 534.902L386.877 539.717L388.875 542.373L386.188 550.357L381.059 546.745L372.677 539.062V533.981L384.419 534.902Z" fill="#F0F7FF"/>
	<path d="M390.096 543.098L387.514 551.171L396.037 553.384L401.325 554.428L402.227 548.179L407.904 545.311L412.944 547.913L414.924 551.082L417.329 550.799L419.221 545.046L412.926 542.443L408.151 539.841L403.376 543.098L397.7 545.966L391.899 543.629L390.096 543.098Z" fill="#F0F7FF"/>
	<path d="M448.702 525.696L445.059 525.324L420.973 545.205L418.427 552.197L415.137 552.569L416.605 568.024L408.205 588.648L417.33 596.384L429.019 597.128L437.048 608.918L448.72 609.29L448.348 618.124H452.716L457.456 601.925L453.07 596.402L454.166 586.099L463.291 585.355L462.195 561.421L441.752 554.8L437.013 541.912L448.702 525.696Z" fill="#F0F7FF"/>
	<path d="M442.919 536.567L443.697 541.152L449.444 542.975L450.753 534.531L456.818 528.246L462.884 535.363L476.837 539.169L488.65 536.69L496.696 546.622L502.762 550.428L496.113 560.572L498.341 568.255L494.539 572.964L490.595 576.274L482.054 571.973L480.091 573.955V580.081L486.333 583.055L481.735 588.029L477.138 593.004L471.072 592.508L464.971 585.799L463.68 560.554L442.848 553.438L439.063 542.338L442.919 536.567Z" fill="#F0F7FF"/>
	<path d="M504.088 551.101L516.856 562.678L511.781 568.556L511.374 572.043L518.041 578.93L517.882 585.551L506.281 589.976L499.331 580.576L500.817 569.282L497.846 560.873L504.088 551.101Z" fill="#F0F7FF"/>
	<path d="M518.377 563.51L521.985 566.82L527.573 563.351L532.666 563.51L532.012 565.493L529.872 569.954L529.536 581.054L519.367 585.196L519.863 578.08L513.302 571.954L513.638 568.803L518.377 563.51Z" fill="#F0F7FF"/>
	<path d="M534.293 564.679L544.638 571.14L539.227 581.904L537.264 584.382L531.517 581.072L531.676 569.476L534.293 564.679Z" fill="#F0F7FF"/>
	<path d="M407.09 589.552L398.726 594.756L398.124 602.475L396.444 605.006L401.714 610.07L399.433 612.566L399.964 618.939L409.389 621.187L423.66 604.281L423.625 598.386L416.781 597.943L407.09 589.552Z" fill="#F0F7FF"/>
	<path d="M397.947 613.752L394.517 617.222L394.747 622.763L424.704 677.43L455.81 697.505L460.62 689.432L461.77 671.676L459.259 660.612L450.788 646.308L445.748 647.919L443.467 650.45L433.404 638.908L435.915 625.294L447.587 617.682L446.667 610.53L434.784 610.07L428.612 599.696L425.181 598.545L425.411 604.776L410.096 622.993L398.655 620.231L397.947 613.752Z" fill="#F0F7FF"/>
	<path d="M457.508 654.946L472.062 648.591L476.872 649.051L480.073 662.435L502.249 669.817L505.909 681.129L515.052 682.28L518.943 691.963L516.202 700.726L501.329 701.877L495.847 715.951L484.176 715.721L480.515 715.03L473.777 721.58L470.453 721.262L459.011 694.725L462.176 689.98L463.291 671.215L460.461 660.045L457.508 654.946Z" fill="#F0F7FF"/>
	<path d="M515.955 702.249L519.845 706.498L519.386 715.491L530.597 714.8L539.068 725.652L538.378 735.336L532.896 743.639L521.684 744.099L521.225 739.479L524.425 731.866L513.444 724.944H504.301L497.439 717.562L502.426 703.293L515.955 702.249Z" fill="#F0F7FF"/>
	<path d="M531.163 759.643L527.538 763.52L529.041 784.374L540.43 787.684L554.913 773.15L531.163 759.643Z" fill="#F0F7FF"/>
	<path d="M540.2 735.336L543.631 738.558L530.597 757.943L526.017 763.023L527.609 785.17L537.671 797.403L529.218 812.167L522.816 814.929H515.495L517.547 826.453L506.105 830.384L508.846 840.067L501.984 861.983L510.455 868.905L505.875 880.2L498.094 892.433L502.214 900.966L492.152 902.577L483.911 892.433L482.532 860.833L469.728 807.157L473.601 788.392L465.36 764.404L470.842 733.265L475.882 727.263L474.645 722.714L481.117 716.801L495.547 717.792L503.611 726.414L512.931 726.573L522.48 732.415L519.669 739L520.341 745.657L533.869 745.019L540.2 735.336Z" fill="#F0F7FF"/>
	<path d="M504.071 905.108L496.52 921.714L509.553 923.095L509.783 912.03L504.071 905.108Z" fill="#F0F7FF"/>
	<path d="M510.933 913.411L511.392 923.555L519.173 922.865L525.805 918.474L514.593 916.173L510.933 913.411Z" fill="#F0F7FF"/>
	<path d="M501.507 902.506L495.83 908.791L495.14 916.173L484.158 909.941L472.487 893.106L469.056 887.104L473.866 880.873L473.406 873.031L467.924 870.729L463.574 867.507L464.494 863.117L470.206 861.506L471.355 836.137L462.442 831.057L456.624 699.01L458.127 696.39L469.516 722.679L473.159 722.749L474.344 726.945L469.498 732.822L463.928 764.458L471.85 788.817L468.19 807.264L481.099 861.506L482.461 893.23L491.71 903.94L501.507 902.506Z" fill="#F0F7FF"/>
	<path d="M463.821 836.137L461.54 839.589L462.69 845.59L464.971 845.82L466.12 838.208L463.821 836.137Z" fill="#F0F7FF"/>
	<path d="M555.709 771.893L566.762 750.613L567.168 732.733L587.788 719.421H599.336L608.408 704.037L610.053 674.508L606.339 666.613L628.197 646.644L629.028 624.603L599.336 610.051L563.472 598.828L546.566 597.164L551.111 587.604L549.873 573.052L546.177 571.831L540.713 582.7L537.848 586.294L530.491 583.037L505.751 591.764L497.51 581.372L498.836 570.521L491.055 578.451L482.461 573.813L481.594 575.035L481.612 578.806L489.022 582.789L477.898 594.526L470.878 594.455L463.769 587.214L455.722 587.462L454.732 596.066L459.348 601.678L453.901 619.151L447.535 619.646L437.402 626.055L434.926 638.642L443.715 648.06L445.324 646.236L451.496 644.572L456.766 653.459L471.85 646.98L477.704 647.316L481.736 661.603L503.258 668.436L506.971 679.837L516.132 680.934L520.5 691.822L517.546 701.505L521.402 706.568L520.836 714.11L531.163 713.136L540.624 725.103L539.882 733.512L545.487 738.257L532.047 758.633L555.709 771.893Z" fill="#F0F7FF"/>
	<path d="M361.749 494.928L361.66 501.39H363.146L368.203 491.937H364.773L361.749 494.928Z" fill="#F0F7FF"/>
	<path d="M1446.51 124.103L1449.63 134.867L1455.85 136.655L1462.08 126.794L1458.52 120.067L1459.85 114.243H1469.19L1466.96 118.722L1467.84 134.867L1454.51 168.042L1455.83 175.212L1455.39 187.321L1480.27 223.63L1485.15 224.975L1485.6 195.393L1490.48 190.915L1485.14 179.266L1489.58 174.327L1479.8 161.333L1474.46 161.775L1472.69 140.266L1486.46 136.672L1487.35 130.388L1494.46 128.6L1498.45 132.194L1503.33 112.472L1511.77 98.133L1518.44 94.5392L1524.22 94.9818V88.2547L1514.88 86.4667L1501.99 75.7032L1508.22 68.5335L1502.87 56.4246L1507.31 51.9457L1512.65 59.1155L1525.99 64.0546L1540.65 65.4L1542.43 59.1332L1534.88 51.5209L1543.32 39.8722L1524.2 33.1451L1519.32 43.0057L1513.1 34.9331L1477.99 22.8242L1444.66 28.6485L1439.78 31.3394V34.0302L1446.89 37.624L1446 46.1391L1433.11 40.7574L1404.67 51.9634L1399.79 41.6603H1380.23L1371.34 51.0783L1339.79 43.9085L1310.91 49.7328L1307.36 58.6906L1311.8 60.036L1311.35 66.7632L1283.36 69.8966L1285.15 78.8543L1259.36 74.3755L1265.59 62.7269L1239.36 61.3814L1241.59 73.4903L1233.15 77.5266L1226.05 70.7995L1197.17 75.7386L1186.06 86.0418L1185.62 92.3087L1178.51 92.7512L1177.63 85.5815L1200.3 65.8603V52.406L1185.64 48.3697L1166.52 54.6366L1158.53 46.564H1154.97L1150.53 55.5217L1154.09 59.558L1128.75 73.4549L1106.98 90.0427L1093.64 108.418V116.031L1107.86 121.855L1100.75 127.237L1085.65 121.855L1079.43 127.237L1070.09 116.473L1068.3 120.51L1078.52 152.782L1081.19 153.685L1088.3 150.091L1091.86 152.782V158.607L1085.19 155.916L1081.19 159.049L1083.86 164.873L1081.64 180.116L1067.86 181.461L1066.98 176.522L1074.97 171.583L1076.76 158.129L1067.86 146.48L1064.75 126.316L1050.53 124.068L1049.2 131.238L1051.87 134.831L1046.09 139.771L1048.32 153.225L1056.75 156.819L1058.54 166.679L1050.09 161.297L1028.32 157.261L1025.65 164.431L1008.32 170.698L1005.65 166.219L982.976 178.77L982.534 187.285L973.639 188.631L976.31 182.364V176.097L967.414 172.964L961.632 175.212L966.512 184.63L970.067 190.897V195.836L963.4 194.491L962.074 193.145L955.407 200.315L958.961 206.582L943.859 206.139L948.74 212.424L947.413 215.115H939.42L933.638 211.078L932.311 199.872L922.974 196.279V191.8L942.533 195.836L953.196 196.739L957.635 190.012L953.638 182.842L925.202 171.636L915.387 174.079L912.027 176.965L913.071 183.603L917.244 184.329L916.272 194.774L929.146 225.046L919.844 239.81L919.207 243.139L923.929 246.467L919.667 249.282L916.838 249.335L917.368 262.346L921.276 267.887L921.329 273.269L926.334 273.729L933.991 276.65L942.091 287.803L942.179 290.742L939.544 295.256L945.592 294.92L951.481 296.619L959.439 307.896L979.033 309.684L978.184 323.103L971.429 328.892L972.826 331.158L966.159 338.328L964.39 345.055L968.387 350.879L981.279 355.358L986.619 352.225L1020.84 365.219L1022.16 361.625L1015.06 354.898V346.383L1010.62 345.037L1011.5 337.868L1018.61 329.352L1005.86 319.793L1006.74 306.498L1020.38 297.522L1036.38 298.425L1039.05 303.364L1055.5 304.267L1067.51 297.54L1061.28 290.813L1062.61 278.261L1093.71 263.019L1117.64 273.818L1125.63 266.648L1149.19 289.06L1166.96 287.272L1173.19 293.539L1190.08 295.327L1201.18 280.085L1215.4 286.369L1222.95 287.715L1230.5 280.988L1223.84 276.509L1229.62 267.551L1246.06 272.933L1249.62 280.103L1256.73 280.545L1261.17 277.412L1273.17 276.969L1274.5 280.103L1288.28 281.005L1297.61 271.145L1316.73 273.393L1322.51 271.145L1324.28 260.381L1318.5 247.387L1324.28 242.448H1342.5L1359.83 263.072L1382.04 275.624H1388.71L1389.59 270.242L1397.58 265.303L1398.47 294.442L1391.36 294.885V302.054L1395.35 306.993L1394.61 313.402L1397.57 314.623L1399.35 310.145L1402.02 311.047L1403.79 312.835L1411.78 311.047L1419.78 287.733L1420.66 258.593L1410.44 235.278L1397.55 219.594L1391.32 220.496V225.436L1376.22 219.611L1382 207.06L1386.88 173.884L1407.33 167.617L1417.11 161.351H1427.77L1425.1 164.944L1427.77 169.423L1437.11 159.563L1442.45 160.005L1441.56 154.181L1433.11 152.393L1438.89 131.326L1446.51 124.103Z" fill="#F0F7FF"/>
	<path d="M1185.55 296.07L1179.43 311.472L1171 311.029L1162.1 330.521L1169.65 340.151L1154.09 361.66L1146.1 360.315L1140.76 367.042L1142.08 371.078L1148.31 371.521L1151.42 378.691L1157.64 380.036L1176.76 404.696V417.248L1186.1 423.072L1196.32 421.284L1209.21 428.896L1224.77 433.375L1232.32 432.472L1240.78 431.569L1258.55 419.921L1264.33 420.824L1266.54 426.082L1271.44 427.551L1278.11 437.412L1273.67 447.272L1276.34 453.999L1283.89 456.69L1285.22 464.763L1294.11 465.666L1295.44 461.629L1308.33 454.902L1316.32 455.345L1325.66 465.648L1331.89 462.957L1335.88 463.4L1337.67 468.339L1340.78 468.781L1345.22 462.514L1362.99 455.787L1379 436.509L1384.34 418.133L1383.9 406.024L1377.23 404.679L1381.23 400.2L1380.34 393.03L1363.45 376V367.484L1368.33 361.218L1373.21 358.969L1373.66 354.03H1361.21L1358.98 360.757L1353.2 359.412L1346.09 351.8L1350.53 340.151L1356.75 333.424L1362.53 333.866L1361.65 344.17L1364.76 346.86L1372.31 339.248L1374.98 338.806L1374.1 332.981L1381.21 324.466L1386.55 324.909L1389.66 315.048L1393.3 313.118L1393.68 306.975L1390.14 303.258L1389.84 293.557L1396.65 293.114L1396.2 268.1L1391.43 270.967L1389.64 277.376L1381.67 277.358L1358.55 264.347L1341.86 244.2L1324.92 244.023L1320.6 247.776L1326.09 260.346L1324.18 272.136L1317.35 274.968L1313.51 274.667L1313.23 286.334L1317.23 287.237L1324.34 284.103L1333.67 288.582V293.061L1327.01 293.503L1321.67 305.152L1316.78 305.595L1299.45 328.449L1281.24 336.522L1268.79 337.425L1260.35 331.6L1248.35 337.885L1235.45 333.849L1232.34 325.334L1210.57 323.988L1199.03 305.17H1194.14L1190.22 296.442L1185.55 296.07Z" fill="#F0F7FF"/>
	<path d="M1191.56 296.248L1201.85 282.581L1214.22 288.299L1222.62 290.547L1232.91 281.094L1225.92 275.942L1230.52 269.445L1244.24 274.296L1249 282.103L1257.6 282.333L1262.09 278.987L1271.34 278.615L1273.35 282.05L1288.72 282.829L1298.45 272.897L1311.9 274.314L1311.13 287.839L1317.01 289.184L1324.25 285.891L1331.9 289.68L1331.73 291.592L1326.17 291.751L1320.39 303.895L1315.9 304.338L1298.43 327.193L1280.58 335.07L1269.43 335.938L1260.16 329.954L1248.31 336.292L1236.64 332.663L1233.33 324.183L1211.23 322.625L1199.91 303.417L1194.41 303.063L1191.56 296.248Z" fill="#F0F7FF"/>
	<path d="M1376.33 338.912L1379.58 340.275L1380.57 351.676L1387.03 352.048L1393.11 344.913L1391 343.037L1391.25 335.389L1396.84 328.626L1393.99 323.493L1395.85 321.368L1396.88 316.057L1393.64 314.588L1390.88 315.986L1387.47 326.36L1381.95 325.882L1375.57 333.424L1376.33 338.912Z" fill="#F0F7FF"/>
	<path d="M1394.12 345.869L1405.05 354.791L1406.9 363.431L1406.53 368.069L1401.19 374.088L1396.59 374.336L1391.38 363.059L1389.4 357.677L1391.5 356.048L1391 353.8L1388.41 352.632L1394.12 345.869Z" fill="#F0F7FF"/>
	<path d="M1019.83 328.91L1027.08 325.812L1035.18 325.528L1035.75 337.92H1031.01L1027.38 343.833L1032.12 351.711L1039.11 355.659L1039.74 360.173L1042.31 359.323L1044.68 356.509L1048.59 357.358L1050.55 361.306H1055.57V356.243L1052.49 347.232L1051.1 339.921L1060.03 335.973L1072.03 337.938L1079.57 345.533L1096.6 343.851L1106.09 357.358L1117.25 357.925L1120.33 352.862L1124.24 352.012L1124.8 346.383L1130.66 346.099L1133.73 349.764L1136.81 342.452L1163.32 346.117L1167.78 340.204L1160.24 330.91L1170.29 308.958L1178.39 309.525L1183.98 296.017L1172.82 294.884L1166.4 288.688L1148.71 290.742L1125.94 268.702L1117.91 275.836L1093.56 264.771L1063.69 279.412L1062.86 289.821L1069.84 297.982L1056.23 305.683L1038.56 305.294L1034.86 299.859L1021.02 299.098L1007.89 307.542L1007.61 319.084L1019.83 328.91Z" fill="#F0F7FF"/>
	<path d="M1050.18 362.492L1049.08 367.148H1041.74V373.45L1049.63 378.655L1047.19 385.789V389.082L1050.46 389.631L1054.81 383.877L1064.61 381.682L1085.54 389.631L1085.81 395.384L1097.5 396.482L1110.55 382.762L1108.92 378.371L1100.22 376.46L1075.75 360.545L1074.65 354.791H1065.4L1061.32 362.474H1057.23L1050.18 362.492Z" fill="#F0F7FF"/>
	<path d="M1112.2 382.797L1117.64 383.081V373.751L1112.48 370.742L1121.18 359.766H1124.72L1128.25 363.89L1137.5 360.332L1124.72 355.942L1124.22 353.286L1121.18 354.03L1118.19 359.235L1105.3 358.81L1095.84 345.409L1079.21 347.055L1071.29 339.195L1060.33 337.336L1052.37 340.576L1056.99 355.942L1057.04 361.111L1060.4 361.182L1064.52 353.322L1075.48 353.463L1077.11 359.5L1100.61 375.114L1109.7 377.203L1112.2 382.797Z" fill="#F0F7FF"/>
	<path d="M1114.44 370.016L1121.71 360.987H1124.45L1125.41 363.005L1122.05 365.448V367.467L1124.26 369.06L1134.88 369.697L1138.35 368.21L1139.92 368.529L1140.99 371.928L1147.3 372.565L1150.46 379.257L1149.51 381.275L1148.25 381.381L1147 378.832L1144.26 378.62L1139.52 379.257L1139.2 383.718L1134.46 383.399L1134.67 377.77L1131.21 374.371L1125.94 378.726L1126.04 381.594L1121.41 383.187H1118.67L1118.88 373.309L1114.44 370.016Z" fill="#F0F7FF"/>
	<path d="M1126.15 347.657L1125.6 352.136L1126.04 354.898L1141.43 360.067L1127.92 365.52L1126.38 364.245L1123.46 366.122L1123.6 367.149L1125.16 367.857L1134.64 368.104L1139.45 366.653L1145.62 358.863L1153.35 360.209L1162.67 347.286L1137.73 343.887L1134.28 352.26L1129.93 347.587L1126.15 347.657Z" fill="#F0F7FF"/>
	<path d="M1086.02 396.943L1088.83 419.001L1095.84 420.541L1096.49 424.506L1091.47 428.702L1100.82 436.261L1119 429.711L1120.45 421.957L1131.9 414.805L1136.28 398.235L1139.55 394.712L1136.16 388.799L1147.23 381.948L1145.81 379.965L1140.7 380.284L1140.24 384.993L1133.38 384.922L1133.26 378.638L1131.05 376L1127.33 379.381L1127.44 382.479L1121.83 384.604L1111.49 383.949L1098.05 398.04L1086.02 396.943Z" fill="#F0F7FF"/>
	<path d="M1101.96 437.288L1106.55 444.121L1106.11 447.644L1099.99 450.069L1099.55 455.805H1106.55L1108.96 453.822H1122.29L1134.32 464.409L1135.86 459.328H1144.82L1145.03 452.937L1135.86 444.121L1137.82 439.27L1147.23 438.615L1159.91 412.149L1152.9 406.644L1150.29 397.385L1167.33 395.845L1157.27 381.505L1151.91 380.054L1149.72 382.709L1148.08 382.833L1138.01 389.224L1141.3 394.747L1137.59 398.713L1132.99 415.69L1121.62 422.966L1120.08 430.915L1101.96 437.288Z" fill="#F0F7FF"/>
	<path d="M1186.58 549.118L1194.67 545.152L1199.48 527.732L1199.27 506.347L1226.82 476.571V469.507L1232.5 467.294L1232.29 459.133L1226.17 447.219L1229.67 440.828L1237.33 447.892L1247.16 448.334V452.3L1244.1 455.61L1244.76 457.381L1250.01 457.593L1251.11 463.541H1252.64L1256.59 456.478L1258.55 437.96L1265.11 433.322L1265.32 426.931L1262.71 421.851L1258.55 421.638L1242.28 432.402L1243.31 439.323L1231.88 439.288L1227.85 434.349L1225.66 434.632L1226.4 441.501L1201.7 439.731L1186.38 432.897L1185.57 424.488L1175.36 418.151L1175.24 405.103L1168.24 397.084L1152.14 398.624L1153.9 405.635L1161.78 412.025L1148.15 439.961L1139.02 440.651L1137.52 444.015L1146.5 452.335L1146.06 460.744L1136.88 460.603L1135.89 464.78L1143.51 464.444L1143.73 467.755L1138.26 470.622L1141.76 477.243L1148.54 479.456L1152.69 476.376L1154.66 470.87L1157.06 469.773L1159.91 472.641L1159.04 479.704L1157.08 483.015L1157.52 488.75L1186.58 549.118Z" fill="#F0F7FF"/>
	<path d="M1186.95 424.4L1187.76 431.959L1202.05 438.439L1224.95 440.138L1224.08 434.597L1208.79 430.384L1195.81 422.647L1186.95 424.4Z" fill="#F0F7FF"/>
	<path d="M1229.76 434.171L1232.5 437.924L1241.77 437.995L1240.83 432.861L1229.76 434.171Z" fill="#F0F7FF"/>
	<path d="M1230.06 443.076L1227.74 447.272L1233.76 458.708L1233.93 467.63L1235.03 470.02L1242.09 470.144L1246.08 466.303L1248.98 468.055L1249.57 473.49L1251.88 472.038L1252.02 465.099L1250.08 464.869L1248.86 458.973L1243.94 458.796L1242.72 455.521L1245.73 451.503L1245.78 449.52H1237.05L1230.06 443.076Z" fill="#F0F7FF"/>
	<path d="M1289.96 532.548L1285.06 524.688L1288.61 519.695L1285.25 513.517L1282.09 512.915L1281.49 502.541L1276.75 493.353L1275.37 495.549L1272.2 500.93L1268.24 501.532L1266.26 498.93L1265.27 491.937L1262.3 486.343L1250.2 474.924L1253.17 472.959L1253.72 464.692L1258.14 457.257L1260.05 438.757L1266.45 434.385L1266.67 427.64L1270.5 428.914L1276.55 437.677L1272.06 447.308L1275.08 454.867L1282.57 457.806L1283.93 466.038L1293.97 467.595L1291.2 472.393L1278.53 477.385L1277.15 485.564L1286.46 497.531L1286.84 503.922L1284.67 506.117L1284.86 508.118L1291.8 518.297L1291.99 528.866L1289.96 532.548Z" fill="#F0F7FF"/>
	<path d="M1291 473.809L1296.73 481.191V490.166L1298.71 491.158L1307.82 486.767L1309.6 487.369L1320.48 499.938L1320.09 508.524L1316.54 507.922L1313.37 505.922L1311 506.117L1306.85 513.092L1307.64 516.88L1311 518.668L1310.81 522.864L1308.44 524.068L1300.32 518.473V513.481L1296.96 513.286L1295.58 515.482L1294.87 537.823L1300.13 547.418L1309.43 556.393L1309.04 558.996L1304.09 558.801L1299.54 552.021H1294.79L1288.84 547.223L1287.06 542.231L1289.62 538.035L1290.51 534.247L1293.3 529.29L1293.18 517.889L1286.35 508.011L1286.07 506.807L1288.28 504.576L1287.76 496.734L1278.67 485.209L1279.74 478.571L1291 473.809Z" fill="#F0F7FF"/>
	<path d="M1295.74 553.437L1299.29 561.421L1300.09 571.795L1304.85 579.177L1316.32 586.152L1320.67 586.56L1319.88 579.372L1316.11 570.202L1310.59 558.465L1310.14 560.518L1303.49 560.217L1298.71 553.349L1295.74 553.437Z" fill="#F0F7FF"/>
	<path d="M1309.48 525.148L1316.71 532.884L1330.17 522.899L1331.36 507.144L1324.41 511.941L1320.8 509.923L1315.9 509.268L1313.16 507.338L1311.83 507.409L1308.24 513.304L1308.83 516.031L1312.47 518.066L1312.03 523.607L1309.48 525.148Z" fill="#F0F7FF"/>
	<path d="M1300.62 460.461L1296.34 462.638L1292.79 473.012L1298.73 480.589L1297.74 488.963L1298.73 489.37L1308.61 484.572L1321.88 499.408L1321.56 508.755L1324.44 510.313L1331.57 504.524L1330.98 499.939L1310.42 480.377L1310.61 477.385L1313.18 475.597L1311.39 470.605L1302.88 469.206L1300.62 460.461Z" fill="#F0F7FF"/>
	<path d="M1317.58 533.964L1319.68 537.275L1320.07 541.063L1325.61 541.665L1332.33 532.69L1338.66 530.902L1342.02 521.731L1340.45 506.967L1333.92 497.992L1327.04 492.486L1318.29 477.438L1324.57 466.923L1315.58 456.602L1308.38 456.283L1301.91 459.771L1303.84 468.109L1312.47 469.631L1314.79 476.057L1311.74 478.04L1311.94 479.634L1332.19 499.461L1332.98 505.285L1331.76 523.696L1317.58 533.964Z" fill="#F0F7FF"/>
	<path d="M982.287 356.42L988.07 363.979L995.285 367.307L999.724 367.29L1007.35 365.218L1009.26 362.227L986.708 353.782L982.287 356.42Z" fill="#F0F7FF"/>
	<path d="M1007.5 366.563L1015.99 377.646L1013.5 380.567L1007.49 379.522L1000.02 372.83L1000.43 368.44L1007.5 366.563Z" fill="#F0F7FF"/>
	<path d="M1010.49 362.723L1008.71 365.768L1017.04 376.708L1019.94 375.77L1024.71 380.78L1026.78 371.999L1031.96 372.831L1031.75 370.317L1023.23 362.847L1021.6 367.237L1010.49 362.723Z" fill="#F0F7FF"/>
	<path d="M1007.38 380.832L1005.22 383.081L1005.44 386.639L1008.12 390.41L1017.66 400.854L1016.21 405.032H1014.54L1013.71 409.21L1019.11 416.114L1024.08 416.539L1034.03 430.33L1039.62 430.755L1043.97 433.888L1044.18 440.155L1061.39 450.193H1067.81L1071.75 446.847L1076.72 446.634L1079.62 453.326L1098.21 455.911L1098.76 449.077L1104.91 446.847L1105.19 444.404L1100.29 437.712L1089.38 428.931L1095.11 423.709L1094.71 421.408L1087.53 420.292L1084.48 396.039L1084.13 390.463L1064.66 383.01L1056.03 384.957L1051.2 390.888L1046.92 390.604L1045.69 391.649L1036.15 391.029L1024.13 382.248L1019.65 377.345L1017.6 377.84L1013.91 382.071L1007.38 380.832Z" fill="#F0F7FF"/>
	<path d="M988.017 365.324L984.073 369.502L969.572 369.077L960.871 363.855L952.383 363.643L942.639 370.547L933.514 370.972L932.683 376.194H922.32L918.182 379.965V382.054L920.675 384.143V386.444L919.632 389.17L920.675 391.472L924 389.808L927.324 393.366L926.493 395.88L925.255 397.562L927.112 399.651L936.237 401.527L942.657 398.801V394.835L945.769 395.455L953.232 399.845L961.313 398.588L964.833 395.243L967.114 396.075V399.845H970.226L972.914 394.623L996.54 392.109L1006.85 390.852L1004.13 387.276L1004.07 382.443L1006.14 379.965L998.609 373.91L999.016 368.688H994.878L988.017 365.324Z" fill="#F0F7FF"/>
	<path d="M1011.52 507.02L1014.07 514.597V521.997L1020.18 527.555L1063.3 509.976L1063.71 505.143L1056.79 492.716L1039.44 498.257L1029.49 508.064L1017.94 501.231L1011.52 507.02Z" fill="#F0F7FF"/>
	<path d="M1058.19 492.167L1071.26 484.625L1073.57 473.561L1070.71 471.914L1071.89 460.053L1074.39 458.602L1077.06 462.797L1092.95 471.118V475.738L1073.7 504.116L1064.84 504.417L1058.19 492.167Z" fill="#F0F7FF"/>
	<path d="M1050.46 464.019L1052 470.18L1069.44 471.72L1070.66 459.08L1074.02 457.239L1074.93 452.618L1069.44 454.158L1063.32 463.417L1050.46 464.019Z" fill="#F0F7FF"/>
	<path d="M1048.02 453.539L1047.1 460.638L1049.82 462.709L1052.3 462.479L1053.22 453.539L1051.08 451.999L1048.02 453.539Z" fill="#F0F7FF"/>
	<path d="M1031.5 432.561L1027.52 430.401L1024.76 433.181L1025.07 438.74L1031.48 441.2L1031.5 432.561Z" fill="#F0F7FF"/>
	<path d="M1032.76 443.307L1045.15 460.602L1049.15 463.789L1050.94 471.543L1070.02 473.048L1072.18 474.181L1070.04 483.74L1057.5 491.14L1039.16 496.699L1029.38 506.259L1017.76 499.478L1010.72 505.639L1000.93 489.618L994.206 486.537L991.766 482.837V474.818L967.308 445.219L966.389 439.978H973.427L981.986 432.579L982.287 428.879L979.846 426.418L984.745 422.417L995.143 423.037L1012.88 437.836L1023.35 437.358L1024.02 439.943L1032.76 443.307Z" fill="#F0F7FF"/>
	<path d="M966.743 400.624L966.124 405.121L971.111 407.21L970.899 419.673L975.886 419.567L980.873 415.796L982.747 415.477L994.065 406.466L996.346 393.384L973.728 395.685L971.341 400.925L966.743 400.624Z" fill="#F0F7FF"/>
	<path d="M997.938 393.366L995.179 407.015L983.755 416.54L984.48 421.036L995.639 421.797L1013.41 436.278L1023.35 435.995L1023.62 432.649L1027.26 428.737L1032.35 431.623L1033.02 430.985L1023.17 417.867L1018.5 417.584L1012.3 409.6L1013.54 403.723L1015.43 403.475L1016.08 400.872L1007.63 391.968L997.938 393.366Z" fill="#F0F7FF"/>
	<path d="M970.686 421.249L966.336 436.438L966.142 438.757H972.985L980.643 431.995L980.837 429.428L977.707 426.223L983.313 421.568L982.499 417.248L980.961 417.602L976.292 420.948L970.686 421.249Z" fill="#F0F7FF"/>
	<path d="M965.911 406.484L966.017 409.936L964.567 415.177L969.554 415.601L969.873 408.166L965.911 406.484Z" fill="#F0F7FF"/>
	<path d="M964.356 416.434L961.562 425.338L965.187 436.013L969.343 420.417V417.071L964.356 416.434Z" fill="#F0F7FF"/>
	<path d="M960.624 401.882L962.8 403.457L956.062 409.848L952.843 409.742L950.456 408.06L950.774 404.927L955.655 404.608L960.624 401.882Z" fill="#F0F7FF"/>
	<path d="M911.551 175.814L915.123 173.194L914.805 170.255L912.541 168.945L912.859 165.351H914.805V163.386L906.369 161.103L893.725 162.413L892.434 167.971L889.516 166.998L887.571 163.723L881.399 164.041L880.745 170.255L877.827 171.565L876.2 168.29L863.22 178.752L865.819 181.691L860.956 183.975L849.921 205.891L846.031 208.511L846.349 210.476L850.24 212.441L849.267 216.69L842.777 216.354L840.832 214.07L836.623 218.974L834.023 220.939L833.369 225.524L831.105 226.834L825.27 228.144L822.352 237.314L824.297 252.362L826.56 259.231L829.16 261.851L834.996 261.532L843.431 253.353L846.667 247.794L847.64 255.973L853.157 246.166L853.476 218.673L857.968 215.84L859.312 200.669L872.928 181.036L879.419 178.752L882.336 175.159L892.063 177.442L896.926 180.381L898.553 172.202L906.67 167.299L911.551 175.814Z" fill="#F0F7FF"/>
	<path d="M788.928 258.911L785.691 263.815L786.982 265.78H794.445V269.055L792.5 271.675L793.791 278.544L798 286.723L801.236 294.247L806.417 296.212L808.681 300.142L808.362 303.736L805.126 305.701L804.808 307.329L807.072 308.639L805.126 311.259L800.581 313.224L791.828 312.251L778.193 318.464L773.648 316.181L786.629 308.657L785.002 307.683L778.193 307.028L782.402 300.815L783.056 295.574L788.574 294.919L787.601 284.776L781.111 284.457L779.166 282.173L779.484 274.649L775.594 274.968L779.484 261.886L786.629 256.646L788.928 258.911Z" fill="#F0F7FF"/>
	<path d="M775.311 280.846L769.476 281.501L769.157 286.741L773.048 289.361L777.257 288.387L778.884 285.449L775.311 280.846Z" fill="#F0F7FF"/>
	<path d="M777.239 289.838L775.629 300.46L761.358 305.7H756.813L753.577 303.417V301.452L760.722 296.867L758.776 292.936L759.095 287.378L765.266 287.696L768.096 281.04L767.724 286.953L772.517 290.759L777.239 289.838Z" fill="#F0F7FF"/>
	<path d="M880.179 180.133L883.645 183.337H890.135L893.707 190.206L894.68 201.978L885.926 208.192V214.406L879.754 222.921L876.182 223.24L871.319 231.419L871.637 239.279L880.073 245.492L879.418 249.086L876.182 253.99L871.319 258.239L871.637 272.313L864.175 274.933L861.575 280.491H858.003L856.057 270.684L847.94 258.221L854.607 247.05L855.067 219.451L859.665 216.92L860.779 201.129L873.883 182.346L880.179 180.133Z" fill="#F0F7FF"/>
	<path d="M896.218 202.014L899.878 203.625L902.142 207.874L899.878 210.812L888.525 223.24L886.58 229.79L889.179 239.279L897.933 245.829L909.605 240.27L919.013 238.96L927.766 224.886L921.276 209.502L915.104 194.774L916.077 185.285L912.187 184.63L911.179 177.708L905.944 169.157L900.144 173.176L897.862 182.505L891.708 178.805L883.149 176.716L881.239 178.947L884.528 181.921L890.523 181.815L895.351 189.622L896.218 202.014Z" fill="#F0F7FF"/>
	<path d="M916.166 262.966L904.053 261.001L904.318 267.781L915.547 274.65L920.145 273.305L919.88 268.135L916.166 262.966Z" fill="#F0F7FF"/>
	<path d="M896.165 256.362L893.424 256.273L891.832 257.884L892.982 259.584L895.723 259.761L897.137 257.707L896.165 256.362Z" fill="#F0F7FF"/>
	<path d="M895.9 263.585L893.247 263.319L888.473 269.037V271.711L890.064 272.33L893.159 272.419L898.287 268.223L898.995 266.789L895.9 263.585Z" fill="#F0F7FF"/>
	<path d="M903.327 268.861L899.525 268.772L894.308 273.765H889.887L890.153 280.014L887.5 284.918L897.05 285.006L899.791 284.652L902.532 287.963L908.809 287.697L914.822 280.032L914.468 275.482L903.327 268.861Z" fill="#F0F7FF"/>
	<path d="M903.062 289.378L905.714 293.751L904.653 297.238L904.83 300L905.803 303.311L911.285 300.195L918.093 300.372L922.868 302.337H934.982L938.518 293.857L940.64 290.653V288.511L933.036 277.801L926.316 275.127L920.834 274.508L916.059 276.03L916.236 280.845L909.605 289.237L903.062 289.378Z" fill="#F0F7FF"/>
	<path d="M904.476 304.373L905.979 307.134L906.333 310.073L905.095 312.923L902.266 318.376L899.878 319.456L896.784 318.11L894.927 318.199L890.417 319.898L885.289 318.376L876.977 312.481L868.843 308.108L865.571 303.116L864.952 291.343L871.318 285.802L879.63 283.041L882.725 282.687L881.487 285.183L882.283 286.156L896.271 286.422L899.277 286.333L904.229 293.928L902.991 297.044L903.521 300.708L904.476 304.373Z" fill="#F0F7FF"/>
	<path d="M792.89 357.907H770.36L765.815 355.854L763.622 356.013L760.97 361.536L761.907 367.219L770.519 368.016L771.616 371.645L767.867 392.8L768.026 396.588L774.127 399.899L781.165 400.377L795.242 396.907L802.121 388.232L802.28 379.399L814.482 368.352L815.101 363.466L803.995 363.307L792.89 357.907Z" fill="#F0F7FF"/>
	<path d="M762.065 368.954L760.969 384.267L757.839 387.1L758.157 388.835L760.35 392.464L758.935 396.889L761.287 397.686L766.769 397.049L766.451 392.623L770.041 372.105L769.263 369.273L762.065 368.954Z" fill="#F0F7FF"/>
	<path d="M815.419 379.522L812.607 380.478L813.226 383.01H817.294L819.009 381.116L815.419 379.522Z" fill="#F0F7FF"/>
	<path d="M844.527 372.742L839.841 375.114L840.46 384.267L844.209 384.904L847.021 382.213V373.539L844.527 372.742Z" fill="#F0F7FF"/>
	<path d="M845.005 361.377L841.557 364.847L841.238 367.998L844.05 369.733L845.147 369.573L845.766 364.988L845.005 361.377Z" fill="#F0F7FF"/>
	<path d="M814.181 311.348L810.272 312.304L802.456 320.819L800.104 320.978L796.974 318.765L794.94 319.243L793.384 324.129L781.96 324.448L782.278 326.979L790.095 332.184L799.167 339.442L799.008 348.117L794.162 356.632L804.649 361.677L815.295 361.996L818.584 358.208L825.304 358.367L827.179 360.102L833.898 359.624L837.347 355.198L832.961 349.993L832.643 346.683L833.58 343.054L831.387 339.903L827.638 341L827.161 338.168L835.455 329.015V323.492L829.973 320.341L827.161 319.863L814.181 311.348Z" fill="#F0F7FF"/>
	<path d="M831.318 292.884L823.307 296.832L825.004 298.372L825.181 302.32L823.483 301.983L821.609 299.062L817.135 306.161L824.014 307.595L826.578 310.304L827.94 310.339L828.842 304.214L833.174 302.39L831.318 292.884Z" fill="#F0F7FF"/>
	<path d="M816.321 307.489L815.189 310.322L827.356 318.359L830.858 319.191L830.981 315.385L827.922 311.95H826.048L823.483 309.029L816.321 307.489Z" fill="#F0F7FF"/>
	<path d="M833.174 292.193L839.487 291.167V286.705L844.775 285.838L847.675 288.759L850.734 289.095L855.509 287.024L859.771 288.228L863.52 291.485L864.033 303.683L867.782 308.675L862.848 309.365L854.66 314.517L855.35 316.234L862.671 323.103L862.158 326.537L855.35 329.972L849.037 330.149L847.498 333.406H844.262L842.723 329.972L837.1 328.591L836.923 322.926L832.148 319.668L832.661 315.544L829.425 311.082L830.274 305.24L834.695 303.169L833.174 292.193Z" fill="#F0F7FF"/>
	<path d="M843.13 263.195L835.791 271.321L835.525 276.614L838.868 285.342L844.102 284.35L843.448 277.216L847.055 273.18L846.985 270.011L844.438 263.408L843.13 263.195Z" fill="#F0F7FF"/>
	<path d="M851.389 277.606L849.744 277.535L847.587 279.518L847.852 282.616L852.963 282.758L853.228 279.252L851.389 277.606Z" fill="#F0F7FF"/>
	<path d="M881.54 260.841L877.809 263.797L879.683 268.134L882.99 264.913L881.54 260.841Z" fill="#F0F7FF"/>
	<path d="M836.304 330.255L828.594 338.469L828.753 339.301L831.918 338.31L834.766 342.275L839.576 340.576L842.9 343.16L844.262 342.381L848.365 335.938L847.321 334.946L843.272 334.84L841.309 330.821L836.304 330.255Z" fill="#F0F7FF"/>
	<path d="M863.75 322.271H869.002H871.584L875.775 325.262L883.538 318.801L876.005 313.419L868.542 309.808L863.431 310.728L856.499 315.189L863.75 322.271Z" fill="#F0F7FF"/>
	<path d="M876.854 326.272L878.074 327.352L878.233 329.193L891.726 328.892L901.7 324.59L901.541 320.218L899.631 321.067L896.89 319.598L895.21 319.527L890.789 321.298L884.776 319.846L876.854 326.272Z" fill="#F0F7FF"/>
	<path d="M849.956 331.565L848.807 333.955L849.797 335.655L853.917 334.805H857.419L861.221 338.027L869.303 336.558L875.245 333.017L876.765 330.627L876.535 327.547L871.195 323.546L864.033 323.617L863.431 327.688L855.898 331.371L849.956 331.565Z" fill="#F0F7FF"/>
	<path d="M878.446 330.644L876.395 333.866L876.554 338.788L879.825 340.469L889.888 340.77L903.911 328.945L903.982 326.325L902.461 325.563L892.328 330.166L878.446 330.644Z" fill="#F0F7FF"/>
	<path d="M875.015 334.875L870.523 337.566L862.141 339.407L863.821 344.258L869.692 344.328L875.103 339.796L875.015 334.875Z" fill="#F0F7FF"/>
	<path d="M876.465 340.487L870.222 345.639H863.891L863.131 350.1L866.031 350.861L867.481 348.702L869.762 350.702L871.584 357.075L884.087 362.917L885.325 361.501L872.645 348.401L873.936 346.011L885.979 345.55L887.199 341.709L879.347 341.939L876.465 340.487Z" fill="#F0F7FF"/>
	<path d="M875.015 347.179L874.36 348.259L886.227 360.51L890.577 354.101L890.418 351.57L886.616 346.949L875.015 347.179Z" fill="#F0F7FF"/>
	<path d="M835.173 343.709L834.076 346.489L834.377 349.516L838.603 354.455L845.253 354.225L859.931 371.291L869.091 373.946L874.502 379.062L875.793 390.729L878.694 389.029L881.205 382.674L880.586 378.106L884.883 377.717L885.502 375.132L873.388 369.326L861.893 358.014L857.313 351.251L856.199 344.825L862.053 343.426L860.549 339.195L856.96 336.168L853.865 336.026L849.55 337.212L845.483 342.913L843.024 344.542L839.222 342.205L835.173 343.709Z" fill="#F0F7FF"/>
	<path d="M870.841 389.808L868.277 388.427L859.523 389.808L859.824 392.18L867.694 396.145L868.878 397.438L870.947 397.739L870.841 389.808Z" fill="#F0F7FF"/>
	<path d="M871.142 402.997L868.188 403.599L868.295 406.874L870.947 407.759L872.132 406.768L871.142 402.997Z" fill="#F0F7FF"/>
	<path d="M911.745 301.523L906.616 304.408L907.89 309.861L903.15 319.863L903.186 324.271L905.414 325.687L919.703 326.395L923.699 323.085L927.979 324.519L934.115 332.715L929.624 340.788L934.964 342.346L941.95 334.291L945.946 335.017L949.66 337.601L946.388 341.921L950.809 348.825H955.513L957.936 344.222L962.923 343.213L963.065 339.478L953.798 338.044L954.081 334.025H963.065L972.755 326.254L977.035 322.518L977.742 310.728L958.644 309.011L950.809 297.947L945.398 296.088L938.837 296.371L935.884 303.682L922.444 303.86L918.076 301.841L911.745 301.523Z" fill="#F0F7FF"/>
	<path d="M920.905 327.298L926.387 335.743L925.928 340.522L927.891 340.611L932.542 332.733L926.953 325.793L923.788 324.483L920.905 327.298Z" fill="#F0F7FF"/>
	<path d="M905.75 327.104L905.29 329.724L895.051 338.256L903.61 350.826L909.092 354.667H918.96L922.214 351.941L926.582 351.374L929.836 353.339L935.601 346.772L934.487 343.479L928.633 341.974L924.636 341.779L924.831 336.15L919.526 327.794L905.75 327.104Z" fill="#F0F7FF"/>
	<path d="M892.88 361.887L892.801 360.23L890.466 356.949L886.688 362.298L887.43 364.546L890.508 365.113L892.88 361.887Z" fill="#F0F7FF"/>
	<path d="M894.027 339.388L890.4 342.116H888.632L887.43 345.867L891.709 350.843L891.992 354.791L891.388 355.645L894.282 359.715L894.382 361.873L896.465 363.892L903.256 361.821L902.689 352.153L894.027 339.388Z" fill="#F0F7FF"/>
	<path d="M904.441 353.287L904.724 362.103L907.695 368.299L918.854 368.494L923.876 364.936L928.81 362.971L927.608 357.341L928.722 354.331L926.211 353.021L922.762 353.305L920.057 356.031L908.703 356.12L904.441 353.287Z" fill="#F0F7FF"/>
	<path d="M891.319 366.334V374.495L893.654 378.903L895.334 378.708L898.216 373.45L896.536 371.096L895.882 365.271L893.654 363.2L891.319 366.334Z" fill="#F0F7FF"/>
	<path d="M903.522 363.235L897.562 365.2L897.845 370.263L899.243 372.051L906.316 368.759L903.522 363.235Z" fill="#F0F7FF"/>
	<path d="M896.076 380.213L895.882 382.567L904.07 386.692L907.978 388.197L905.927 390.357L901.364 390.817L900.71 392.888L902.284 396.447L907.394 399.173L909.622 399.368L909.905 393.26L913.248 389.224L904.123 378.425L905.325 374.76L907.465 374.672L910.719 377.292L912.77 376.265L913.425 372.601L923.009 372.689L923.381 367.06L919.384 369.874L907.66 369.591L900.038 373.539L896.076 380.213Z" fill="#F0F7FF"/>
	<path d="M924.92 366.227L924.637 372.512L930.119 370.83L932.63 369.148L931.887 366.422L929.288 364.351L924.92 366.227Z" fill="#F0F7FF"/>
	<path d="M913.849 403.209L916.732 403.298L917.934 405.086H922.126L924.92 404.059L925.857 405.192L924 407.635L915.812 407.918L914.327 405.953L912.753 405.015L913.849 403.209Z" fill="#F0F7FF"/>
</svg>
